<mxfile modified="2023-01-10T10:43:53.447Z" host="app.diagrams.net" agent="5.0 (Windows NT 10.0; Win64; x64) AppleWebKit/537.36 (KHTML, like Gecko) Chrome/108.0.0.0 Safari/537.36" etag="ETtWIsob3CUDatjJKdqe" version="20.8.3" type="github">
  <diagram id="WI9T0HZ2pTsCkuznbFz-" name="Page-1">
    <mxGraphModel dx="1599" dy="840" grid="1" gridSize="10" guides="1" tooltips="1" connect="1" arrows="1" fold="1" page="1" pageScale="1" pageWidth="827" pageHeight="1169" math="0" shadow="0">
      <root>
        <mxCell id="0" />
        <mxCell id="1" parent="0" />
        <mxCell id="AcxdMaKK0mU5kZiv2lnr-32" value="Jenkins" style="shape=image;verticalLabelPosition=bottom;labelBackgroundColor=none;verticalAlign=top;aspect=fixed;imageAspect=0;image=data:image/svg+xml,PHN2ZyB4bWxuczpjYz0iaHR0cDovL2NyZWF0aXZlY29tbW9ucy5vcmcvbnMjIiB4bWxuczpkYz0iaHR0cDovL3B1cmwub3JnL2RjL2VsZW1lbnRzLzEuMS8iIHhtbG5zOmlua3NjYXBlPSJodHRwOi8vd3d3Lmlua3NjYXBlLm9yZy9uYW1lc3BhY2VzL2lua3NjYXBlIiB4bWxuczpyZGY9Imh0dHA6Ly93d3cudzMub3JnLzE5OTkvMDIvMjItcmRmLXN5bnRheC1ucyMiIHhtbG5zOnNvZGlwb2RpPSJodHRwOi8vc29kaXBvZGkuc291cmNlZm9yZ2UubmV0L0RURC9zb2RpcG9kaS0wLmR0ZCIgeG1sbnM6c3ZnPSJodHRwOi8vd3d3LnczLm9yZy8yMDAwL3N2ZyIgeG1sbnM9Imh0dHA6Ly93d3cudzMub3JnLzIwMDAvc3ZnIiB4bWxuczp4bGluaz0iaHR0cDovL3d3dy53My5vcmcvMTk5OS94bGluayIgdmVyc2lvbj0iMS4xIiBpZD0ic3ZnMjQ4MSIgaW5rc2NhcGU6dmVyc2lvbj0iMC45Mi4zICgyNDA1NTQ2LCAyMDE4LTAzLTExKSIgc29kaXBvZGk6ZG9jbmFtZT0iamVua2lucy5zdmciIHg9IjBweCIgeT0iMHB4IiB2aWV3Qm94PSIwIDAgNDMuMzkgNDcuODIiIHN0eWxlPSJlbmFibGUtYmFja2dyb3VuZDpuZXcgMCAwIDQzLjM5IDQ3LjgyOyIgeG1sOnNwYWNlPSJwcmVzZXJ2ZSI+JiN4YTs8c29kaXBvZGk6bmFtZWR2aWV3IGJvcmRlcmNvbG9yPSIjNjY2NjY2IiBib3JkZXJvcGFjaXR5PSIxIiBmaXQtbWFyZ2luLWJvdHRvbT0iMCIgZml0LW1hcmdpbi1sZWZ0PSIwIiBmaXQtbWFyZ2luLXJpZ2h0PSIwIiBmaXQtbWFyZ2luLXRvcD0iMCIgZ3JpZHRvbGVyYW5jZT0iMTAiIGd1aWRldG9sZXJhbmNlPSIxMCIgaWQ9Im5hbWVkdmlldzI0ODMiIGlua3NjYXBlOmN1cnJlbnQtbGF5ZXI9InN2ZzI0ODEiIGlua3NjYXBlOmN4PSIzOC45MDIzMDgiIGlua3NjYXBlOmN5PSI5LjMxNTMxNyIgaW5rc2NhcGU6cGFnZW9wYWNpdHk9IjAiIGlua3NjYXBlOnBhZ2VzaGFkb3c9IjIiIGlua3NjYXBlOndpbmRvdy1oZWlnaHQ9IjEwMTciIGlua3NjYXBlOndpbmRvdy1tYXhpbWl6ZWQ9IjEiIGlua3NjYXBlOndpbmRvdy13aWR0aD0iMTkyMCIgaW5rc2NhcGU6d2luZG93LXg9Ii04IiBpbmtzY2FwZTp3aW5kb3cteT0iLTgiIGlua3NjYXBlOnpvb209IjYuNTkyNzExNCIgb2JqZWN0dG9sZXJhbmNlPSIxMCIgcGFnZWNvbG9yPSIjZmZmZmZmIiBzaG93Z3JpZD0iZmFsc2UiPiYjeGE7CTwvc29kaXBvZGk6bmFtZWR2aWV3PiYjeGE7PGcgaWQ9ImcyNDc5IiB0cmFuc2Zvcm09InRyYW5zbGF0ZSgtMC43NSwtMC43NTA5OTM0NSkiPiYjeGE7CTx0aXRsZSBpZD0idGl0bGUyMzExIj5QYWdlLTE8L3RpdGxlPiYjeGE7CTxnIGlkPSJncm91cDE2NDEtMSIgdHJhbnNmb3JtPSJ0cmFuc2xhdGUoMC43NSwtMC43NSkiPiYjeGE7CQk8dGl0bGUgaWQ9InRpdGxlMjMxMyI+SmVua2luczwvdGl0bGU+JiN4YTsJCTxnIGlkPSJncm91cDE2NDItMiI+JiN4YTsJCQk8dGl0bGUgaWQ9InRpdGxlMjMxNSI+ZzE0NTI0PC90aXRsZT4mI3hhOwkJCTxnIGlkPSJzaGFwZTE2NDMtMyI+JiN4YTsJCQkJPHRpdGxlIGlkPSJ0aXRsZTIzMTciPnBhdGgxNDQ2MDwvdGl0bGU+JiN4YTsJCQkJPHBhdGggaWQ9InBhdGgyMzE5IiBpbmtzY2FwZTpjb25uZWN0b3ItY3VydmF0dXJlPSIwIiBzdHlsZT0iZmlsbDojMjgyNDI1OyIgZD0iTTQwLjY2LDM4LjEyYy0wLjcxLTAuNzUtMS41LTEuMzctMi4yNS0yLjA1ICAgICAgYy0wLjU3LTAuNDItMC43MS0xLjIyLTAuMzEtMS44MWMzLjM5LTYuMjYsMy44LTEyLjk4LDIuODYtMTkuODZjLTAuOTMtNi40Ny03LTEyLjQtMTMuNjgtMTIuODVjLTEuODgtMC4wOS0zLjc3LTAuMDUtNS42NSwwLjExICAgICAgYy00LjIyLDAuNzUtNy44OCwyLjY5LTExLjM4LDVDOC45Niw3LjQ5LDgsOC43NCw3LjUxLDEwLjE5Yy0wLjA4LDAuMjItMC4xOCwwLjUyLTAuMzUsMC42M2MtMS44NywxLjA2LTIuMzcsMi44Ni0yLjU2LDQuNzUgICAgICBjLTAuMDcsMS4wOC0wLjA1LDIuMTYsMC4wNywzLjIzYzAuMDgsMC42OS0wLjA1LDEuMzktMC4zNiwyLjAyYy0xLjAzLDIuMTYtMC42OSw0LjM1LDAuMTYsNi40OGMwLjYxLDEuOCwyLjA3LDMuMTcsMy45LDMuNjcgICAgICBjMC4yNiwwLjExLDAuNDYsMC4zMywwLjU2LDAuNTljMC40NywxLjEzLDAuODMsMi4zMSwxLjM1LDMuNDJjMC41MywxLjExLDAuNTYsMS41NS0wLjYxLDIuMjVjLTIuOCwxLjczLTUuNjQsMy4zOS04LjQ3LDUuMDkgICAgICBjLTAuNDMsMC4zMi0wLjg0LDAuNjktMS4yLDEuMDl2MS4xMmMwLjUyLDEuNDgsMS4yLDMuMjksMS43Miw0Ljc5aDM5LjQyYzAuNzUtMi4zNiwxLjUtNS4wNCwyLjI1LTcuNHYtMC43NSAgICAgIEM0Mi40NSw0MC4xNSw0MS42MSwzOS4xLDQwLjY2LDM4LjEyeiBNMzAuMjksNDMuNjRjMC4wNywwLjU4LTAuMzUsMS4xMS0wLjkzLDEuMTdjLTAuMDMsMC0wLjA2LDAuMDEtMC4wOSwwLjAxICAgICAgYy0wLjU3LDAuMDYtMC44Ny0wLjQ3LTAuODktMS43N2MwLjI2LTAuMjIsMC41Ni0wLjM4LDAuODgtMC40OEMyOS45Miw0Mi41NywzMC4yNyw0My4wMiwzMC4yOSw0My42NHoiLz4mI3hhOwkJCTwvZz4mI3hhOwkJCTxnIGlkPSJzaGFwZTE2NDQtNSIgdHJhbnNmb3JtPSJ0cmFuc2xhdGUoNS43LC04LjA0NzUpIj4mI3hhOwkJCQk8dGl0bGUgaWQ9InRpdGxlMjMyMiI+cGF0aDE0NDYyPC90aXRsZT4mI3hhOwkJCQk8cGF0aCBpZD0icGF0aDIzMjQiIGlua3NjYXBlOmNvbm5lY3Rvci1jdXJ2YXR1cmU9IjAiIHN0eWxlPSJmaWxsOiNFRUQ0QjU7IiBkPSJNMjguNzUsMTkuODNjMC43My0wLjIsMS40OS0wLjI5LDIuMjUtMC4yNiAgICAgIGMxLjY0LDAuMjMsMi45MiwxLjUyLDMuMTMsMy4xNmMxLjE1LDcuNTYsMC42OCwxNC45Mi00LjQ2LDIxYy0zLjEzLDMuNzUtOS4yMSw1LjU5LTE0LjMzLDEuMDVjLTEuMjctMS4yNy0yLjQ2LTIuNjEtMy41Ni00LjAzICAgICAgYy0wLjIxLTAuMjUtMC40MS0wLjUtMC43NS0wLjkxYzAuMzksMi4yNSwyLjE4LDQuNSw1LjQsNy4wNmMtMC44MiwwLjQtMS42OSwwLjctMi41OSwwLjljLTEuMy0wLjAyLTIuNTktMC4xNC0zLjg3LTAuMzggICAgICBDNy4zLDQ0LjU3LDYuOSw0MS4yNSw2LjU4LDM3LjM4YzAtMC4zNi0wLjQ2LTAuNjktMC43LTEuMDRjLTAuMzgsMC4wNS0wLjc1LDAuMTUtMS4xLDAuM2MtMS41NiwwLjk4LTIuNzcsMC43NS0zLjkyLTAuODIgICAgICBMMC42NywzNS42TDAsMzQuNzdjMC4wOC0wLjI0LDAuMDQtMS4zNiwwLjA4LTEuNjJjMC4xNC0xLjA4LDAuOC0wLjc1LDAuOTItMS44N2wwLjkzLTAuMzdjLTAuMzYsMi4xMi0wLjI4LDIuODQsMC4zNCwzLjU1ICAgICAgYzAuMDEtMC42OCwwLjA2LTEuMzYsMC4xNS0yLjAzYzAuMDctMC4zMywwLjQtMC42MywwLjYxLTAuOTRjMC4zMSwwLjE5LDAuNjEsMC40MiwwLjg3LDAuNjhjMC4yOCwwLjQxLDAuNTMsMC44NCwwLjc1LDEuMjggICAgICBjMC4yNi0xLjI5LTAuNjUtMy4xNi0xLjI3LTMuOTdjMC4zNywwLDEuMjUsMS4wMywxLjYxLDEuMDRsMC4wOCwwLjI2bDAuMzQsMC45NWMwLjI3LDAsMC4yNSwwLjEzLDAuNTUsMC4xMiAgICAgIGMxLjM4LTAuMDksMi4wNi0wLjYsMS43My0xLjg5Yy0wLjk0LTMuOC0wLjA1LTcuNC0wLjE5LTguOWMwLjI4LTAuNDMsMC43LTIuMjksMC45NC0yLjc1YzEuMzEtMi41NSwzLjM4LTMuOCw2LTUuMDQgICAgICBjMy43NS0xLjc4LDYuMzUtMS4yOCwxMC40MS0wLjYzYzAuMzQsMC4wNSwyLjMsMC44MywyLjY1LDAuODZjMS40MSwxLjIxLDIuNzIsMi41MiwzLjkzLDMuOTNjLTEuMjcsMC4yMy0xLjk2LTAuNTMtMi4yNSwwLjc1ICAgICAgQzI5LjAzLDE4LjY2LDI4LjE0LDE5Ljc0LDI4Ljc1LDE5LjgzeiBNMzEuODksMjQuMzNjLTAuMjEsMC4wNCwwLjcxLDIuMzcsMC44OCwyLjc3bC0xLjM2LDAuMjJsLTEuMzUsMC4xOWwtMC4xNywwLjI3ICAgICAgYzAuMzMsMC4zMywwLjYxLDAuOCwxLjAxLDAuOTZjMC43NSwwLjMzLDIuMzMtMC4yNSwyLjg1LTAuOTRjMC4xLTAuMTQsMC4yMy0wLjM4LDAuMTgtMC40OGMtMC42Mi0xLjI0LTEuMjctMi40NS0xLjk4LTMuODMgICAgICBMMzEuODksMjQuMzN6IE0xMi41NiwyMi42MmwwLjQxLDAuNzVjMC4wOC0wLjA3LDAuMTYtMC4xNCwwLjIzLTAuMjJjMC4wNS0wLjA4LDAuMDktMC4xNiwwLjEzLTAuMjRjMC45Mi0xLjg0LDIuMjUtMyw0LjQ1LTIuNzIgICAgICBjMC43NSwwLjA5LDAuNjEtMC40NiwwLjM2LTAuODRjLTAuMjItMC4yNS0wLjQ3LTAuNDgtMC43NS0wLjY2QzE1LjA2LDE3LjM0LDExLjk0LDIxLjk5LDEyLjU2LDIyLjYyeiBNMjAuMzksMjYuODlMMjEsMjcuNzUgICAgICBjLTEuMTYsMC43NS0yLjMzLDAuMDYtMy40MywwLjE1Yy0wLjM1LDAuNzUtMC4wOSwxLjI4LDAuNTgsMS4zOWMwLjkyLDAuMiwxLjg4LDAuMjMsMi44MSwwLjA4YzEuMjktMC4yOCwxLjUtMS41LDAuNjQtMi40OSAgICAgIGMtMC4zNi0wLjM4LTAuNjgtMC43OS0wLjk2LTEuMjNjLTAuMzQtMC41OC0wLjU5LTEuMjItMC45NS0xLjk1bC0wLjE4LDAuNmMtMC42MywwLjIzLDAuMjUsMi42NSwwLjg5LDIuNTlMMjAuMzksMjYuODl6ICAgICAgIE0yOC4wOSw0MS42MWMtMS42MSwwLTMuMDMsMC4wOC00LjQ0LDBjLTEuNzgtMC4xMS0zLjQzLTAuNTctNC40MS0yLjI5Yy0wLjA5LTAuMTctMC41Mi0wLjE0LTAuOTQtMC4yMyAgICAgIGMxLjU4LDIuNTIsMy4xNyw0LjU2LDYuMzEsNC4wNkMyNS44Myw0Mi45MiwyNy4xOSw0My4xMSwyOC4wOSw0MS42MXogTTI2LjkxLDM4LjQ1bC03LjM1LTAuNzVjMi4wMSwyLjI1LDQuNjQsMi4zMyw3LjM1LDIuNDMgICAgICBWMzguNDV6IE0yNy42NiwzOS44OGMyLjE0LDAsNC4wNC0xLjM5LDQuNjktMy40M2wtNC42OSwxLjlMMjcuNjYsMzkuODh6Ii8+JiN4YTsJCQk8L2c+JiN4YTsJCQk8ZyBpZD0ic2hhcGUxNjQ1LTciIHRyYW5zZm9ybT0idHJhbnNsYXRlKDQuNDU1LC0xLjU5KSI+JiN4YTsJCQkJPHRpdGxlIGlkPSJ0aXRsZTIzMjciPnBhdGgxNDQ2NDwvdGl0bGU+JiN4YTsJCQkJPHBhdGggaWQ9InBhdGgyMzI5IiBpbmtzY2FwZTpjb25uZWN0b3ItY3VydmF0dXJlPSIwIiBzdHlsZT0iZmlsbDojMzM1MDYxOyIgZD0iTTE1LjQ5LDQ5LjMySDAuNjEgICAgICBjLTAuMTQtMC44Mi0wLjIyLTEuNjYtMC40NS0yLjQ2Yy0wLjE2LTAuNTksMC0wLjg0LDAuNTQtMS4wNWMyLjAxLTAuODcsNC4wMi0xLjc2LDYtMi42N2MwLjc1LTAuMzMsMS40LTAuNzUsMi4xLTEuMTIgICAgICBjMS4zOSwwLjg4LDIuNzUsMS44Myw0LjIsMi42YzAuOTMsMC41LDEuNzcsMC44NCwxLjgzLDIuMTJDMTQuOTYsNDcuNjIsMTUuMTgsNDguNDksMTUuNDksNDkuMzJ6Ii8+JiN4YTsJCQk8L2c+JiN4YTsJCQk8ZyBpZD0ic2hhcGUxNjQ2LTkiIHRyYW5zZm9ybT0idHJhbnNsYXRlKDEzLjExNzUsLTM1LjI1KSI+JiN4YTsJCQkJPHRpdGxlIGlkPSJ0aXRsZTIzMzIiPnBhdGgxNDQ2NjwvdGl0bGU+JiN4YTsJCQkJPHBhdGggaWQ9InBhdGgyMzM0IiBpbmtzY2FwZTpjb25uZWN0b3ItY3VydmF0dXJlPSIwIiBzdHlsZT0iZmlsbDojRjNFMUNBOyIgZD0iTTIwLjAzLDQwLjcxYy0wLjM1LDAtMC43LDAtMS4wNi0wLjA5ICAgICAgQzE1LDM5Ljg1LDEwLjg5LDQwLjMzLDcuMjEsNDJjLTIuNTMsMS4yMy00LjU4LDMuMjgtNS44LDUuODJjLTAuMjMsMC40NS0xLjA0LDEuMTEtMS4zMywxLjVjLTAuMDgtMC45OCwwLjA1LTIuMDMsMC0zICAgICAgYzAuMDQtMC40MSwwLjE4LTAuOCwwLjQxLTEuMTRjMC40OS0wLjc4LDEuMDYtMS41MSwxLjcxLTIuMTdjMi4xNC0xLjk1LDQuNS0zLjcxLDcuMzUtNC4zNCAgICAgIEMxMy4yNywzNy44NSwxNi43NiwzOC44NiwyMC4wMyw0MC43MXoiLz4mI3hhOwkJCTwvZz4mI3hhOwkJCTxnIGlkPSJzaGFwZTE2NDctMTEiIHRyYW5zZm9ybT0idHJhbnNsYXRlKDYuNTk0MDUsLTI2Ljk3NzUpIj4mI3hhOwkJCQk8dGl0bGUgaWQ9InRpdGxlMjMzNyI+cGF0aDE0NDY4PC90aXRsZT4mI3hhOwkJCQk8cGF0aCBpZD0icGF0aDIzMzkiIGlua3NjYXBlOmNvbm5lY3Rvci1jdXJ2YXR1cmU9IjAiIHN0eWxlPSJmaWxsOiM2RDZCNkQ7IiBkPSJNNS45LDM4Ljc2YzAuMDcsMS4yNiwwLjA1LDIuNTItMC4wNCwzLjc4ICAgICAgYy0wLjMyLDIuMS0wLjc1LDMsMC4xNSw1LjgxYzAuMDgsMC4yNC0wLjEyLDAuNTgtMC4yMSwwLjk3Yy0wLjI1LTAuMTktMC4zMy0wLjIxLTAuMzQtMC4yNmMtMC43NS0yLjU5LTIuMjUtMy40MS01LjI1LTIuODMgICAgICBjLTAuNC0xLjM0LTAuMjctMi43OSwwLjM3LTQuMDNDMS41OSwzOS45MywzLjYxLDM5LjA3LDUuOSwzOC43NnoiLz4mI3hhOwkJCTwvZz4mI3hhOwkJCTxnIGlkPSJzaGFwZTE2NDgtMTMiIHRyYW5zZm9ybT0idHJhbnNsYXRlKDIuMDkyNSwtMS42MDUpIj4mI3hhOwkJCQk8dGl0bGUgaWQ9InRpdGxlMjM0MiI+cGF0aDE0NDcwPC90aXRsZT4mI3hhOwkJCQk8cGF0aCBpZD0icGF0aDIzNDQiIGlua3NjYXBlOmNvbm5lY3Rvci1jdXJ2YXR1cmU9IjAiIHN0eWxlPSJmaWxsOiM0ODcwODk7IiBkPSJNMTEuMTcsNDIuMDJjLTAuNywwLjM3LTEuMzgsMC44LTIuMSwxLjEyICAgICAgYy0xLjk5LDAuOTEtNCwxLjgtNiwyLjY3Yy0wLjUsMC4yMS0wLjcsMC40Ni0wLjU0LDEuMDVjMC4yMywwLjgsMC4zMSwxLjY0LDAuNDUsMi40NkgxLjFjLTAuMzctMC45NS0wLjc5LTEuODktMS4xLTIuODUgICAgICBjLTAuMDYtMC4zMSwwLjAyLTAuNjMsMC4yMy0wLjg3YzIuNTItMi4wOCw1LjI5LTMuODUsOC4yNS01LjI1YzAuNTEtMC4zMSwxLjE3LTAuMTcsMS41LDAuMzIgICAgICBDMTAuMzksNDEuMTcsMTAuNzksNDEuNTcsMTEuMTcsNDIuMDJ6Ii8+JiN4YTsJCQk8L2c+JiN4YTsJCQk8ZyBpZD0ic2hhcGUxNjQ5LTE1IiB0cmFuc2Zvcm09InRyYW5zbGF0ZSgzNi43OTUsLTEuNTgyNSkiPiYjeGE7CQkJCTx0aXRsZSBpZD0idGl0bGUyMzQ3Ij5wYXRoMTQ0NzI8L3RpdGxlPiYjeGE7CQkJCTxwYXRoIGlkPSJwYXRoMjM0OSIgaW5rc2NhcGU6Y29ubmVjdG9yLWN1cnZhdHVyZT0iMCIgc3R5bGU9ImZpbGw6IzMzNEY2MDsiIGQ9Ik0zLjYxLDQ5LjMyTDEsNDkuMjdjMC0wLjE1LDAtMC4zNy0wLjA2LTAuNDQgICAgICBDMCw0OC4wMiwwLjI5LDQ3LjEsMC41Miw0Ni4wOGMwLjMtMS42MSwwLjE1LTMuMjctMC40NS00LjhjMC4yMiwwLjEsMC40MywwLjIxLDAuNjMsMC4zM2MxLjM1LDAuOTQsMi43LDEuODksNC4wNCwyLjgzICAgICAgTDMuNjEsNDkuMzJ6Ii8+JiN4YTsJCQk8L2c+JiN4YTsJCQk8ZyBpZD0ic2hhcGUxNjUwLTE3IiB0cmFuc2Zvcm09InRyYW5zbGF0ZSgxMC40ODE2LC05Ljg0KSI+JiN4YTsJCQkJPHRpdGxlIGlkPSJ0aXRsZTIzNTIiPnBhdGgxNDQ3NDwvdGl0bGU+JiN4YTsJCQkJPHBhdGggaWQ9InBhdGgyMzU0IiBpbmtzY2FwZTpjb25uZWN0b3ItY3VydmF0dXJlPSIwIiBzdHlsZT0iZmlsbDojRjJFMEM5OyIgZD0iTTEuMDgsMzguMTZjMC4yNCwwLjM0LDAuOTMsMC42NywwLjk2LDEuMDMgICAgICBjMC4zMSwzLjg3LDEuNCw3LjI4LDQuMDgsMTAuMTNjLTEuNTMsMC4wMS0yLjkzLTAuODItMy42Ni0yLjE2Yy0wLjkzLTEuOTEtMS42Mi0zLjkzLTIuMzgtNS45MWMtMC4yNS0wLjU5LTAuMDktMS4yNywwLjM5LTEuNyAgICAgIEMwLjc1LDM5LjEyLDAuOTUsMzguNjUsMS4wOCwzOC4xNnoiLz4mI3hhOwkJCTwvZz4mI3hhOwkJCTxnIGlkPSJzaGFwZTE2NTEtMTkiIHRyYW5zZm9ybT0idHJhbnNsYXRlKDMxLjMyLC0zLjU3KSI+JiN4YTsJCQkJPHRpdGxlIGlkPSJ0aXRsZTIzNTciPnBhdGgxNDQ3NjwvdGl0bGU+JiN4YTsJCQkJPHBhdGggaWQ9InBhdGgyMzU5IiBpbmtzY2FwZTpjb25uZWN0b3ItY3VydmF0dXJlPSIwIiBzdHlsZT0iZmlsbDojQ0YzNzMzOyIgZD0iTTQuNyw0NC43M2MwLjExLDEuMjUsMC4yMywyLjQ5LDAuMywzLjc1ICAgICAgYzAsMC41Ny0wLjMxLDAuODQtMC45MSwwLjc1bC0zLjc1LTAuNTdDMC4yOCw0OC4wMywwLDQ3LjExLDAuNzYsNDcuMDdjMC43NS0wLjA1LDAuODItMS4zNSwwLjg2LTEuOSAgICAgIGMwLjA5LTEuMzEsMC41MS0wLjksMS44NC0xLjA4QzMuODgsNDQuMDQsNC4yNyw0NC43OSw0LjcsNDQuNzN6Ii8+JiN4YTsJCQk8L2c+JiN4YTsJCQk8ZyBpZD0ic2hhcGUxNjUyLTIxIiB0cmFuc2Zvcm09InRyYW5zbGF0ZSgyMC4wMSwtMC42MykiPiYjeGE7CQkJCTx0aXRsZSBpZD0idGl0bGUyMzYyIj5wYXRoMTQ0Nzg8L3RpdGxlPiYjeGE7CQkJCTxwYXRoIGlkPSJwYXRoMjM2NCIgaW5rc2NhcGU6Y29ubmVjdG9yLWN1cnZhdHVyZT0iMCIgc3R5bGU9ImZpbGw6I0QxMzgzMzsiIGQ9Ik0zLjgxLDQ4Ljg0Yy0wLjU1LDAuMjEtMS4xMSwwLjM3LTEuNjgsMC40OCAgICAgIEMxLjc2LDQ5LjI4LDEuNDEsNDkuMTcsMS4wOCw0OWMwLTAuMDQtMC4wMi0wLjA4LTAuMDUtMC4xMWwtMC4xNS0wLjc1Yy0wLjQ0LTEuNC0wLjcxLTIuODUtMC44MS00LjMxICAgICAgQzAsNDIuOTksMS4xLDQyLjE2LDEuNzIsNDIuMThjMS4yMiwwLjE1LDIuNDMsMC4zOSwzLjYyLDAuN2MwLjIyLDAsMC42OCwwLjMyLDAuNjIsMC41MmMtMC4yMiwwLjc1LTAuMTYsMS4xOCwwLjMyLDEuMzUgICAgICBDNi43Myw0NSw3LjIxLDQ1LjIsNy43LDQ1LjM2Yy0wLjE2LDAuMzktMC4yMiwwLjkzLTAuNTIsMS4xNUM2LjEsNDcuMzIsNC45NSw0OC4wNiwzLjgxLDQ4Ljg0eiIvPiYjeGE7CQkJPC9nPiYjeGE7CQkJPGcgaWQ9InNoYXBlMTY1My0yMyIgdHJhbnNmb3JtPSJ0cmFuc2xhdGUoMjAuMDY1NywtMS43ODUpIj4mI3hhOwkJCQk8dGl0bGUgaWQ9InRpdGxlMjM2NyI+cGF0aDE0NDgwPC90aXRsZT4mI3hhOwkJCQk8cGF0aCBpZD0icGF0aDIzNjkiIGlua3NjYXBlOmNvbm5lY3Rvci1jdXJ2YXR1cmU9IjAiIHN0eWxlPSJmaWxsOiNFNTNCMzk7IiBkPSJNNy42Niw0Ni40OWMtMC41MS0wLjA0LTEuMDEtMC4xMy0xLjUtMC4yNyAgICAgIGMtMC40Ny0wLjE3LTAuOTQtMC40NC0wLjc1LTEuMTdjLTAuMDMtMC4zMi0wLjIyLTAuNi0wLjUxLTAuNzVjLTEuMTItMC4yLTIuMjUtMC4zMS0zLjM4LTAuMzRjLTAuNjIsMC0wLjksMC43NS0wLjgzLDEuNjEgICAgICBjMC4xMSwxLjIzLDAuMTEsMi40OSwwLjE1LDMuNzVjLTAuODUtMS43NC0xLjEzLTMuNjktMC44MS01LjZjMC4yLTEuMjUsMC43LTEuNjYsMS44OS0xLjI4YzEuMTgsMC4zNywyLjQ5LDAuOTEsMy43MSwxLjQyICAgICAgYzAuNjQsMC4yNywxLjI1LDAuNjQsMi4xMSwxLjA4bC0xLjY1LDAuNzFMNy42Niw0Ni40OXoiLz4mI3hhOwkJCTwvZz4mI3hhOwkJCTxnIGlkPSJzaGFwZTE2NTQtMjUiIHRyYW5zZm9ybT0idHJhbnNsYXRlKDQuNzQsLTIyLjAyNzUpIj4mI3hhOwkJCQk8dGl0bGUgaWQ9InRpdGxlMjM3MiI+cGF0aDE0NDgyPC90aXRsZT4mI3hhOwkJCQk8cGF0aCBpZD0icGF0aDIzNzQiIGlua3NjYXBlOmNvbm5lY3Rvci1jdXJ2YXR1cmU9IjAiIHN0eWxlPSJmaWxsOiNFRkREQzc7IiBkPSJNNiw0NC40OUg0Ljg5Yy0wLjQ4LTAuMjUtMC45OC0wLjQ1LTEuNS0wLjU4ICAgICAgYy0wLjY3LTAuMS0xLjMsMC4zNi0xLjQsMS4wNGMtMC4wMiwwLjExLTAuMDIsMC4yMywwLDAuMzRjLTAuMTIsMS4wOS0wLjI0LDIuMTktMC4zOCwzLjI4Yy0wLjA2LDAuMjYtMC4xNCwwLjUxLTAuMjQsMC43NSAgICAgIEMwLjU1LDQ3Ljk4LDAsNDYuNTksMC41Myw0NS4wOWMwLjMxLTAuODMsMC44NS0xLjU1LDEuNTYtMi4wN0MzLjczLDQxLjg3LDUuMjYsNDIuNTEsNiw0NC40OXoiLz4mI3hhOwkJCTwvZz4mI3hhOwkJCTxnIGlkPSJzaGFwZTE2NTUtMjciIHRyYW5zZm9ybT0idHJhbnNsYXRlKDM1LjI3MjUsLTYuNDU3NSkiPiYjeGE7CQkJCTx0aXRsZSBpZD0idGl0bGUyMzc3Ij5wYXRoMTQ0ODQ8L3RpdGxlPiYjeGE7CQkJCTxwYXRoIGlkPSJwYXRoMjM3OSIgaW5rc2NhcGU6Y29ubmVjdG9yLWN1cnZhdHVyZT0iMCIgc3R5bGU9ImZpbGw6IzQ3NkY4NzsiIGQ9Ik02LjI1LDQ5LjMyYy0xLjM0LTAuOTUtMi42OC0xLjg5LTQuMDMtMi44MyAgICAgIGMtMC4yLTAuMTMtMC40MS0wLjI0LTAuNjMtMC4zNEwwLDQ0LjU5bDEuMzMtMS4xNmwyLjI1LDIuMDJjMC40NCwwLjQ3LDAuOTEsMC45MSwxLjQxLDEuMzJDNS45MSw0Ny4yNyw2LjQxLDQ4LjI5LDYuMjUsNDkuMzJ6Ii8+JiN4YTsJCQk8L2c+JiN4YTsJCQk8ZyBpZD0ic2hhcGUxNjU2LTI5IiB0cmFuc2Zvcm09InRyYW5zbGF0ZSg4LjgyLC0zOC44NjUpIj4mI3hhOwkJCQk8dGl0bGUgaWQ9InRpdGxlMjM4MiI+cGF0aDE0NDg2PC90aXRsZT4mI3hhOwkJCQk8cGF0aCBpZD0icGF0aDIzODQiIGlua3NjYXBlOmNvbm5lY3Rvci1jdXJ2YXR1cmU9IjAiIHN0eWxlPSJmaWxsOiNEM0QwQ0Y7IiBkPSJNMS45Nyw0OC41N0wwLDQ5LjMyICAgICAgYzAuOTgtMi42Miw3LjA1LTYuNTEsOC43NC01LjU5bC0yLjQ0LDEuNUM0LjUzLDQ1Ljg0LDMuMDEsNDcuMDEsMS45Nyw0OC41N3oiLz4mI3hhOwkJCTwvZz4mI3hhOwkJCTxnIGlkPSJzaGFwZTE2NTctMzEiIHRyYW5zZm9ybT0idHJhbnNsYXRlKDYuMzE1LC0zMC4wNzUpIj4mI3hhOwkJCQk8dGl0bGUgaWQ9InRpdGxlMjM4NyI+cGF0aDE0NDg4PC90aXRsZT4mI3hhOwkJCQk8cGF0aCBpZD0icGF0aDIzODkiIGlua3NjYXBlOmNvbm5lY3Rvci1jdXJ2YXR1cmU9IjAiIHN0eWxlPSJmaWxsOiNEQ0Q5RDg7IiBkPSJNNi4xOCw0MS44NWMtMi4zMSwwLjMzLTQuMzEsMS4xOC01LjM1LDMuNDMgICAgICBjLTAuNjQsMS4yNS0wLjc4LDIuNy0wLjM3LDQuMDRjLTAuMTUsMC0wLjQ0LDAtMC40Ni0wLjA2Yy0xLjA4LTMuMjcsMC43LTYuOCwzLjk3LTcuODhjMC4zMi0wLjExLDAuNjUtMC4xOSwwLjk4LTAuMjQgICAgICBsMS4wOS0wLjE2TDYuMTgsNDEuODV6Ii8+JiN4YTsJCQk8L2c+JiN4YTsJCQk8ZyBpZD0ic2hhcGUxNjU4LTMzIiB0cmFuc2Zvcm09InRyYW5zbGF0ZSgzMC44NTUsLTQuMjIyNSkiPiYjeGE7CQkJCTx0aXRsZSBpZD0idGl0bGUyMzkyIj5wYXRoMTQ0OTA8L3RpdGxlPiYjeGE7CQkJCTxwYXRoIGlkPSJwYXRoMjM5NCIgaW5rc2NhcGU6Y29ubmVjdG9yLWN1cnZhdHVyZT0iMCIgc3R5bGU9ImZpbGw6I0U1M0IzOTsiIGQ9Ik01LjE3LDQ1LjM4Yy0wLjQyLDAuMDctMC44NCwwLjE0LTEuMjcsMC4xOSAgICAgIGMtMS4zNCwwLjE4LTEuMzMsMC4xOC0xLjQyLDEuNWMtMC4wNCwwLjU1LTAuMTMsMS4wOC0wLjgyLDEuMTJjLTAuNjksMC4wNC0wLjkxLDAuNS0wLjg1LDEuMTNDMC43LDQ4LjksMC40LDQ4LjQxLDAuNTMsNDguMDkgICAgICBjMC4xNC0wLjMxLDAuNjgtMC41NCwxLjA4LTAuODJjLTAuNDQtMC4yNC0xLjYxLDAuMzQtMS40NC0xLjFjMC45NS0wLjU1LDEuOTgtMS4yMywzLjA5LTEuNzVDNC4zNyw0My45LDQuODQsNDQuMjYsNS4xNyw0NS4zOHogICAgICAiLz4mI3hhOwkJCTwvZz4mI3hhOwkJCTxnIGlkPSJzaGFwZTE2NTktMzUiIHRyYW5zZm9ybT0idHJhbnNsYXRlKDI4LjUsLTEuNTk3NSkiPiYjeGE7CQkJCTx0aXRsZSBpZD0idGl0bGUyMzk3Ij5wYXRoMTQ0OTI8L3RpdGxlPiYjeGE7CQkJCTxwYXRoIGlkPSJwYXRoMjM5OSIgaW5rc2NhcGU6Y29ubmVjdG9yLWN1cnZhdHVyZT0iMCIgc3R5bGU9ImZpbGw6I0Y3RjdGNzsiIGQ9Ik0xLjExLDQ5LjMyQzAsNDcuOTEsMS43OCw0Ny45MSwyLjg0LDQ3LjkxICAgICAgYzAuODYsMCwxLjE2LDAuNjYsMS4yNSwxLjM4Yy0wLjQ3LTAuMDktMC45My0wLjItMS4zOS0wLjI1Yy0wLjI3LDAtMC41MywwLjAzLTAuNzksMC4xQzEuNjQsNDkuMTcsMS4zNyw0OS4yNSwxLjExLDQ5LjMyeiIvPiYjeGE7CQkJPC9nPiYjeGE7CQkJPGcgaWQ9InNoYXBlMTY2MC0zNyIgdHJhbnNmb3JtPSJ0cmFuc2xhdGUoMjcuODc3NSwtMS41OTc1KSI+JiN4YTsJCQkJPHRpdGxlIGlkPSJ0aXRsZTI0MDIiPnBhdGgxNDQ5NDwvdGl0bGU+JiN4YTsJCQkJPHBhdGggaWQ9InBhdGgyNDA0IiBpbmtzY2FwZTpjb25uZWN0b3ItY3VydmF0dXJlPSIwIiBzdHlsZT0iZmlsbDojRDdENEQzOyIgZD0iTTQuODksNDkuMjhINC43MWMtMC40OC0wLjI3LTAuOTUtMC41NS0xLjQzLTAuOCAgICAgIGMtMC45NS0wLjQ3LTEuMzItMC4yNi0xLjU2LDAuODRsLTEuMDctMC4wNkwwLDQ4LjE4YzAuNTgtMC44OSwxLjY1LTAuODYsMi40My0wLjg5czEuNjQsMC42MiwyLjQ2LDFMNC44OSw0OS4yOHoiLz4mI3hhOwkJCTwvZz4mI3hhOwkJCTxnIGlkPSJzaGFwZTE2NjEtMzkiIHRyYW5zZm9ybT0idHJhbnNsYXRlKDEwLjc5MjUsLTM5LjU3KSI+JiN4YTsJCQkJPHRpdGxlIGlkPSJ0aXRsZTI0MDciPnBhdGgxNDQ5NjwvdGl0bGU+JiN4YTsJCQkJPHBhdGggaWQ9InBhdGgyNDA5IiBpbmtzY2FwZTpjb25uZWN0b3ItY3VydmF0dXJlPSIwIiBzdHlsZT0iZmlsbDojNkQ2QjZEOyIgZD0iTTAsNDkuMjdjMS4wNS0xLjU0LDIuNTctMi42OSw0LjMzLTMuMjkgICAgICBDMy43OCw0Ny4wMiwzLjEsNDgsMi4zMSw0OC44OEMxLjgyLDQ5LjMyLDAuNzksNDkuMTQsMCw0OS4yN3oiLz4mI3hhOwkJCTwvZz4mI3hhOwkJCTxnIGlkPSJzaGFwZTE2NjItNDEiIHRyYW5zZm9ybT0idHJhbnNsYXRlKDE1LjI0NzUsLTcuMTMyNSkiPiYjeGE7CQkJCTx0aXRsZSBpZD0idGl0bGUyNDEyIj5wYXRoMTQ0OTg8L3RpdGxlPiYjeGE7CQkJCTxwYXRoIGlkPSJwYXRoMjQxNCIgaW5rc2NhcGU6Y29ubmVjdG9yLWN1cnZhdHVyZT0iMCIgc3R5bGU9ImZpbGw6I0U5RThFODsiIGQ9Ik0zLjk1LDQ3Ljk3bC0wLjMxLDEuMzUgICAgICBDMS44LDQ5LjIyLDAuMTksNDguMzYsMCw0Ny4zN0wzLjk1LDQ3Ljk3eiIvPiYjeGE7CQkJPC9nPiYjeGE7CQkJPGcgaWQ9InNoYXBlMTY2My00MyIgdHJhbnNmb3JtPSJ0cmFuc2xhdGUoMzMuODQsLTM3LjUzNzUpIj4mI3hhOwkJCQk8dGl0bGUgaWQ9InRpdGxlMjQxNyI+cGF0aDE0NTAwPC90aXRsZT4mI3hhOwkJCQk8cGF0aCBpZD0icGF0aDI0MTkiIGlua3NjYXBlOmNvbm5lY3Rvci1jdXJ2YXR1cmU9IjAiIHN0eWxlPSJmaWxsOiNGMkUwQzk7IiBkPSJNMC42MSw0OS4zMkMwLDQ5LjIzLDAuMDEsNDguNzksMC4xLDQ4LjM0ICAgICAgYzAuMjMtMS4xOSwxLjIyLTIuMSwyLjQzLTIuMjFsMS4wOSwxLjNjLTAuNjYsMC4wNS0xLjMyLDAuMTUtMS45NiwwLjNDMS4wMSw0Ny45OCwwLjU5LDQ4LjYyLDAuNjEsNDkuMzJ6Ii8+JiN4YTsJCQk8L2c+JiN4YTsJCQk8ZyBpZD0ic2hhcGUxNjY0LTQ1IiB0cmFuc2Zvcm09InRyYW5zbGF0ZSgyNi41MTI1LC03LjYwOTI0KSI+JiN4YTsJCQkJPHRpdGxlIGlkPSJ0aXRsZTI0MjIiPnBhdGgxNDUwMjwvdGl0bGU+JiN4YTsJCQkJPHBhdGggaWQ9InBhdGgyNDI0IiBpbmtzY2FwZTpjb25uZWN0b3ItY3VydmF0dXJlPSIwIiBzdHlsZT0iZmlsbDojREVDOEFEOyIgZD0iTTAsNDguNDFsNC44Mi0wLjUzICAgICAgYy0wLjksMS40NS0yLjgsMS44OS00LjI1LDAuOTlDMC4zNyw0OC43NCwwLjE3LDQ4LjU5LDAsNDguNDF6Ii8+JiN4YTsJCQk8L2c+JiN4YTsJCQk8ZyBpZD0ic2hhcGUxNjY1LTQ3IiB0cmFuc2Zvcm09InRyYW5zbGF0ZSgyOC4zOCwtNC40MjUpIj4mI3hhOwkJCQk8dGl0bGUgaWQ9InRpdGxlMjQyNyI+cGF0aDE0NTA0PC90aXRsZT4mI3hhOwkJCQk8cGF0aCBpZD0icGF0aDI0MjkiIGlua3NjYXBlOmNvbm5lY3Rvci1jdXJ2YXR1cmU9IjAiIHN0eWxlPSJmaWxsOiNFNTNCMzk7IiBkPSJNMCw0Ny40OWMwLjI1LTAuMjMsMC41NS0wLjQsMC44OC0wLjUgICAgICBjMC42Ni0wLjA3LDEuMDEsMC40MSwxLjAzLDEuMDRjMC4wOCwwLjU4LTAuMzIsMS4xMS0wLjg5LDEuMmMtMC4wNCwwLjAxLTAuMDgsMC4wMS0wLjEzLDAuMDFDMC4zMiw0OS4zMiwwLjAyLDQ4LjgsMCw0Ny40OXoiLz4mI3hhOwkJCTwvZz4mI3hhOwkJCTxnIGlkPSJzaGFwZTE2NjYtNDkiIHRyYW5zZm9ybT0idHJhbnNsYXRlKDMzLjQ1LC0xLjUpIj4mI3hhOwkJCQk8dGl0bGUgaWQ9InRpdGxlMjQzMiI+cGF0aDE0NTA2PC90aXRsZT4mI3hhOwkJCQk8cGF0aCBpZD0icGF0aDI0MzQiIGlua3NjYXBlOmNvbm5lY3Rvci1jdXJ2YXR1cmU9IjAiIHN0eWxlPSJmaWxsOiM3RUFBQkQ7IiBkPSJNMy43NSw0OS4zMkgwYzAuMDEtMC44NiwwLjcyLTEuNTQsMS41OC0xLjUzICAgICAgYzAuMjgsMCwwLjU1LDAuMDgsMC43OCwwLjIzQzIuODQsNDguMjQsMy4zMyw0OC45NiwzLjc1LDQ5LjMyeiIvPiYjeGE7CQkJPC9nPiYjeGE7CQkJPGcgaWQ9InNoYXBlMTY2Ny01MSIgdHJhbnNmb3JtPSJ0cmFuc2xhdGUoNi4zNDUsLTIxLjUyNSkiPiYjeGE7CQkJCTx0aXRsZSBpZD0idGl0bGUyNDM3Ij5wYXRoMTQ1MDg8L3RpdGxlPiYjeGE7CQkJCTxwYXRoIGlkPSJwYXRoMjQzOSIgaW5rc2NhcGU6Y29ubmVjdG9yLWN1cnZhdHVyZT0iMCIgc3R5bGU9ImZpbGw6I0VGRERDNzsiIGQ9Ik0wLDQ5LjA5bDAuMTksMC4yM0wwLDQ5LjA5eiIvPiYjeGE7CQkJPC9nPiYjeGE7CQkJPGcgaWQ9InNoYXBlMTY2OC01MyIgdHJhbnNmb3JtPSJ0cmFuc2xhdGUoMTAuNzMyNSwtMjYuNTY1KSI+JiN4YTsJCQkJPHRpdGxlIGlkPSJ0aXRsZTI0NDIiPnBhdGgxNDUxMDwvdGl0bGU+JiN4YTsJCQkJPHBhdGggaWQ9InBhdGgyNDQ0IiBpbmtzY2FwZTpjb25uZWN0b3ItY3VydmF0dXJlPSIwIiBzdHlsZT0iZmlsbDojRUZEREM3OyIgZD0iTTAuMDcsNDkuMzJMMCw0OS4wNUwwLjA3LDQ5LjMyeiIvPiYjeGE7CQkJPC9nPiYjeGE7CQkJPGcgaWQ9InNoYXBlMTY2OS01NSIgdHJhbnNmb3JtPSJ0cmFuc2xhdGUoMjguNTYsLTIwLjA3KSI+JiN4YTsJCQkJPHRpdGxlIGlkPSJ0aXRsZTI0NDciPnBhdGgxNDUxMjwvdGl0bGU+JiN4YTsJCQkJPHBhdGggaWQ9InBhdGgyNDQ5IiBpbmtzY2FwZTpjb25uZWN0b3ItY3VydmF0dXJlPSIwIiBzdHlsZT0iZmlsbDojMkIyNzI2OyIgZD0iTTAuOSw0Ni44OWMwLjI3LDEuMTgsMC41MSwxLjUsMS41OSwxLjI3ICAgICAgYzEuNTgtMC40MSwzLjExLTAuOTUsNC41OS0xLjYzYzAuNjctMC4yOSwwLjYxLTEuMjYsMC0yLjA0Yy0wLjk1LTEuMjItMS45NS0yLjQtMi44NS0zLjY1Yy0wLjk2LTEuMjItMS40My0yLjc2LTEuMzEtNC4zMSAgICAgIGMwLjI1LDAuMjIsMC40NywwLjMxLDAuNTIsMC40NmMwLjk1LDIuNzEsMi44Nyw0Ljc0LDQuNzcsNi43NWMwLjg4LDAuODIsMC45NCwyLjIsMC4xMiwzLjA4Yy0wLjE0LDAuMTUtMC4zMSwwLjI5LTAuNDksMC40ICAgICAgYy0xLjk1LDEuMi0zLjk5LDIuMS02LjM2LDEuOTVjLTAuODQtMC4wNS0xLjA0LTAuNjMtMS4xMS0xLjIzQzAuMzEsNDcuNDcsMCw0Ni43OCwwLjg1LDQ2LjU2TDAuOSw0Ni44OXoiLz4mI3hhOwkJCTwvZz4mI3hhOwkJCTxnIGlkPSJzaGFwZTE2NzAtNTciIHRyYW5zZm9ybT0idHJhbnNsYXRlKDIzLjEwNzUsLTMwLjMyMjUpIj4mI3hhOwkJCQk8dGl0bGUgaWQ9InRpdGxlMjQ1MiI+cGF0aDE0NTE0PC90aXRsZT4mI3hhOwkJCQk8cGF0aCBpZD0icGF0aDI0NTQiIGlua3NjYXBlOmNvbm5lY3Rvci1jdXJ2YXR1cmU9IjAiIHN0eWxlPSJmaWxsOiNGNUUyQ0I7IiBkPSJNMi4wOSw0Ni41NmwwLjkzLDIuNjEgICAgICBjLTAuNjMsMC4xMi0xLjI3LDAuMTctMS45MSwwLjE1QzAuNjUsNDkuMjUsMC4yNCw0OC45OCwwLDQ4LjU3Yy0wLjEtMC40NiwwLjA0LTAuOTMsMC4zNy0xLjI3ICAgICAgQzAuOTEsNDYuOTcsMS40OSw0Ni43MywyLjA5LDQ2LjU2eiIvPiYjeGE7CQkJPC9nPiYjeGE7CQkJPGcgaWQ9InNoYXBlMTY3MS01OSIgdHJhbnNmb3JtPSJ0cmFuc2xhdGUoMTcuNjQ3NSwtMzQuNzQ3NSkiPiYjeGE7CQkJCTx0aXRsZSBpZD0idGl0bGUyNDU3Ij5wYXRoMTQ1MTY8L3RpdGxlPiYjeGE7CQkJCTxwYXRoIGlkPSJwYXRoMjQ1OSIgaW5rc2NhcGU6Y29ubmVjdG9yLWN1cnZhdHVyZT0iMCIgc3R5bGU9ImZpbGw6I0VGRERDNzsiIGQ9Ik01LjQ2LDQ1LjRjLTEuOTEtMC41My00LjU3LDEuNy00Ljg0LDMuOTIgICAgICBjLTAuNjItMC42My0wLjM4LTEuMzMtMC4xLTEuOThDMS4wNyw0Ni4wMSwyLjIsNDUsMy41OCw0NC41OWMwLjcyLTAuMzEsMS41NCwwLjAyLDEuODUsMC43NEM1LjQ0LDQ1LjM1LDUuNDUsNDUuMzgsNS40Niw0NS40eiIvPiYjeGE7CQkJPC9nPiYjeGE7CQkJPGcgaWQ9InNoYXBlMTY3Mi02MSIgdHJhbnNmb3JtPSJ0cmFuc2xhdGUoMzUuNjEsLTMwLjI3NzUpIj4mI3hhOwkJCQk8dGl0bGUgaWQ9InRpdGxlMjQ2MiI+cGF0aDE0NTE4PC90aXRsZT4mI3hhOwkJCQk8cGF0aCBpZD0icGF0aDI0NjQiIGlua3NjYXBlOmNvbm5lY3Rvci1jdXJ2YXR1cmU9IjAiIHN0eWxlPSJmaWxsOiNGNUUyQ0I7IiBkPSJNMS45OCw0Ni41MmwwLjQ2LDEuNzYgICAgICBjLTAuMDYsMC4wNy0wLjExLDAuMTctMC4xOCwwLjJjLTAuNiwwLjI0LTEuMjMsMC44NC0xLjgzLDAuMTVjLTAuNDMtMC41LDAuMTItMS41OCwwLjkzLTEuOTdDMS41Niw0Ni41OSwxLjc3LDQ2LjU0LDEuOTgsNDYuNTIgICAgICB6Ii8+JiN4YTsJCQk8L2c+JiN4YTsJCQk8ZyBpZD0ic2hhcGUxNjczLTYzIiB0cmFuc2Zvcm09InRyYW5zbGF0ZSgyMi40NzgzLC0xNy4xMTUpIj4mI3hhOwkJCQk8dGl0bGUgaWQ9InRpdGxlMjQ2NyI+cGF0aDE0NTIwPC90aXRsZT4mI3hhOwkJCQk8cGF0aCBpZD0icGF0aDI0NjkiIGlua3NjYXBlOmNvbm5lY3Rvci1jdXJ2YXR1cmU9IjAiIHN0eWxlPSJmaWxsOiNGNUUyQ0I7IiBkPSJNMC4wNSw0OS4yOWMtMC4wNy0wLjY5LTAuMDctMS40LDAtMi4wOSAgICAgIGMwLTAuMTYsMC43NS0wLjIxLDEuNC0wLjM3bC0wLjk4LDIuNDlMMC4wNSw0OS4yOXoiLz4mI3hhOwkJCTwvZz4mI3hhOwkJCTxnIGlkPSJzaGFwZTE2NzQtNjUiIHRyYW5zZm9ybT0idHJhbnNsYXRlKDI5LjM4NSwtMjIuNSkiPiYjeGE7CQkJCTx0aXRsZSBpZD0idGl0bGUyNDcyIj5wYXRoMTQ1MjI8L3RpdGxlPiYjeGE7CQkJCTxwYXRoIGlkPSJwYXRoMjQ3NCIgaW5rc2NhcGU6Y29ubmVjdG9yLWN1cnZhdHVyZT0iMCIgc3R5bGU9ImZpbGw6I0Y1RTJDQjsiIGQ9Ik0wLjA3LDQ5LjMyTDAsNDkuMDIgICAgICBjMC4wMy0wLjQsMC4xLTAuNzksMC4yMi0xLjE3YzAuMTEtMC4yNiwwLjM0LTAuNDUsMC42MS0wLjUzYzAuMjYsMC4wMywwLjQ5LDAuMiwwLjYsMC40NGMwLjA1LDAuMjktMC4wMywwLjU4LTAuMjMsMC43OSAgICAgIEMwLjg1LDQ4Ljg1LDAuNDcsNDkuMTEsMC4wNyw0OS4zMnoiLz4mI3hhOwkJCTwvZz4mI3hhOwkJPC9nPiYjeGE7CTwvZz4mI3hhOzwvZz4mI3hhOzwvc3ZnPg==;" parent="1" vertex="1">
          <mxGeometry x="1210" y="80" width="43" height="48" as="geometry" />
        </mxCell>
        <mxCell id="VBNxlW6NnqshUpCFo_7A-4" value="" style="image;image=img/lib/atlassian/Bitbucket_Logo.svg;" vertex="1" parent="1">
          <mxGeometry x="194" y="380" width="57" height="45.5" as="geometry" />
        </mxCell>
        <mxCell id="VBNxlW6NnqshUpCFo_7A-5" style="rounded=0;orthogonalLoop=1;jettySize=auto;elbow=vertical;html=1;strokeColor=#808080;" edge="1" parent="1">
          <mxGeometry relative="1" as="geometry">
            <mxPoint x="260" y="498.9075067024128" as="sourcePoint" />
            <mxPoint x="340" y="540" as="targetPoint" />
          </mxGeometry>
        </mxCell>
        <mxCell id="VBNxlW6NnqshUpCFo_7A-6" style="rounded=0;orthogonalLoop=1;jettySize=auto;elbow=vertical;html=1;strokeColor=#808080;" edge="1" parent="1">
          <mxGeometry relative="1" as="geometry">
            <mxPoint x="260" y="479.7600536193029" as="sourcePoint" />
            <mxPoint x="340" y="440" as="targetPoint" />
          </mxGeometry>
        </mxCell>
        <mxCell id="VBNxlW6NnqshUpCFo_7A-7" style="edgeStyle=elbowEdgeStyle;rounded=0;orthogonalLoop=1;jettySize=auto;elbow=vertical;html=1;strokeColor=#808080;" edge="1" parent="1">
          <mxGeometry relative="1" as="geometry">
            <mxPoint x="480" y="558" as="targetPoint" />
            <mxPoint x="391.5" y="558" as="sourcePoint" />
          </mxGeometry>
        </mxCell>
        <mxCell id="VBNxlW6NnqshUpCFo_7A-11" value="Galaxy Test" style="text;html=1;align=center;verticalAlign=middle;resizable=0;points=[];autosize=1;strokeColor=none;fillColor=none;" vertex="1" parent="1">
          <mxGeometry x="320" y="417" width="90" height="30" as="geometry" />
        </mxCell>
        <mxCell id="VBNxlW6NnqshUpCFo_7A-12" value="Galaxy Jobs" style="text;html=1;align=center;verticalAlign=middle;resizable=0;points=[];autosize=1;strokeColor=none;fillColor=none;" vertex="1" parent="1">
          <mxGeometry x="320" y="535" width="90" height="30" as="geometry" />
        </mxCell>
        <mxCell id="VBNxlW6NnqshUpCFo_7A-13" value="BitBucket" style="text;html=1;align=center;verticalAlign=middle;resizable=0;points=[];autosize=1;strokeColor=none;fillColor=none;" vertex="1" parent="1">
          <mxGeometry x="190" y="417" width="70" height="30" as="geometry" />
        </mxCell>
        <mxCell id="VBNxlW6NnqshUpCFo_7A-14" value="" style="shape=image;verticalLabelPosition=bottom;labelBackgroundColor=default;verticalAlign=top;aspect=fixed;imageAspect=0;image=data:image/png,iVBORw0KGgoAAAANSUhEUgAAAQAAAAEACAYAAABccqhmAAAACXBIWXMAAAsTAAALEwEAmpwYAAAAGXRFWHRTb2Z0d2FyZQBBZG9iZSBJbWFnZVJlYWR5ccllPAAAKJdJREFUeNrsXXuQXFWZPzP9mkf3vJNJZpLJZMjTgCQu+EREAavchSHUmnItlMQoLiIs+UfXRS1CsaUsWFTcXZRaQJIAIhVREtxSBBQELNeo5P0YzJuZTDIzmWdm+t17v07fsdPTj/v43XtPd3+/qqlInNzue+85v/M73+8731eRSCQEg8EoT1QwATAYTAAMBoMJgMFgMAEwGAwmAAaDwQTAYDCYABgMBhMAg8FgAmAwGEwADAaDCYDBYDABMBgMJgAGg8EEwGAwmAAYDAYTAIPBYAJgMBhMAAwGgwmAwWAwATAYDCYABoPBBMBgMJgAGAwGE4CN6O7uXqn8sUn5+Rg/jZLECeVnw44dO17gR8EEkDn5G5Q/jis/9fw0Sh6rFBLYxY9BiEp+BNPYwJO/bLCJHwErgPTVv1P54xgPh7LCFxQVsJkVAIOwmR9B2WFjatvHBFDmq/81goN+5YgFqW0fEwCv/owyxYbU9o8JoExX/w2plYBRnqCg78ZyfgBlGwRk24+Rho/v2LHjNVYA5YVNPPkZaWOBFUAZrf6U8fc2j3tGGsrSFixXBcCJIIwZY6IcbcGyIwDlJa8WbPsxZoK2gxuYAHj1Z5Qv7i03W7CsCEB5uRsF234MXiCmUTZBwBSz7xIc+WcURtnYguWkADby5GdoxGbeApTW6n+N8sdaHtcMjViQyhJlAiih1Z/B0DVmysEWLHkCUF7iOsG2H0M/yuKcQEkHAVMMToE/jvwzjGLhjh07jrMCKE7waT+GWWxmBVCcq3+n4DJfDAxuLtVKwqWsADjjj8FjqRwJIGX73cTjlgHCglQWKRMAMzajTLGhFG3BkiOAlO13OY9XBhj1pbiwlFQQkMt8MWxASXUVKjUFsJEnP4O3l2WoANj2Y9iIkikfVkoKYDOPS4ZdSrNUAoIlQQDc3YdhM0qmq1CpKABe/Rl2oyS6ChU9AXB3H4ZDKInTgkUdBCwG22+yyi9OtV4CuVZtaELM6z8i9TuZXPReEZuLWRi9Jw4L38nDsg/Doi4f5i5yApO6u8/hBZeLno73wq7nFQkxuOIjYuWrW6W83/1XrRG+VR8WNf4A5oJXKaS38xVR/8pPZB6DpAKu4S2A/as/dfeRtszXWG0TdPITwl2XilPLPiiG2pfIt/IHmsXRyz8ujogq6HXPX3mdCHUslXkofiyVfcoE4MDqLy32XXIF9Ho+n08If13yf7997a3S3e+u6y58p3A8IQbGJ6DXHrlhvfRjsVhtwaIkANm7+/Q3zxdD9a2w67niMRFauGL6v6cCTcpq+wlp7pcUyVDb4un/7lU2KyIagV0/Vt+sKIHrZR6SRdtVqFgVgOSr/5XQ61U0zRbC67vo73re/w8i4quW4n4zFUksIcSpYBT6GeMf7RbxqhqZX3tRdhUqOgKQvbsPBf6mfLWw63kScRFt75rx9xFvtei58gbn71chIlIkmTgbd4nY+XHY58QVshu77p94YSpnAkgxrLRSK+L2imNty6HXjLcpt+zKbtZQ0I2Cb47drzIpj+XZihypwCqUycs+LCKt82UeojelslKZACzCRiGx7be/6wqFBDyw6/kqFDk9qz3v76jBN0fu96o1SSWSU7ZH42JidAT6maOsAsqTAGTv7kNBP1TCj4rQosI2IgXf+rvsr38y1jIvaUkWwjGXsh2KhGGfG+5YKoJLVsk8VC8vpq5CxaQANsr85Wjvj0TS9qvWFkvYp6zEdmPfR7V9ZtIWDIahn10EKqBoTgsWBQHI3t2HVn6o7ZeIa1r9VVAQjoJxdoEUR7rtVwhkC8aDk7DPJ1uQXAGJUTTnBCqLYPI3yLyvosAfevWvaJyVM/CXU2pf/glbbEH6DL2Kg2zBk1gRkMwLiNW3yDx07y4GW7AYFMAGIXHg72j7crzt16E/1ZeCcftt2ApQAlI2269grEK4RWR8FPY9yBaUXAUQNjMBmFv9iUHvlfX70Uk/dL5/fJ7xQCIF5Sg4Z9n9Bprz2n6F8NdKbCIP2YJFcE7gGiYA45DaUiHbDwmvyyVizXNMXUNrcM4IktmHXuPbjEllL4C2BVkFlCgByN7dh4J+lPOPRHix+ViCVbYg5ftrsf00qQCwLTj53o/IPMek7iokswIoq3x/b21gRr6/mX06GoPtiyHXoYAg2hYcv6oozglsltEalLIi0MMPP/zfK1eu/OrixYul+D7nz5+/4Mun8NPjg+LrfzoOu36V2yWCS9+nO/KfCx+oTohn52MP43x/yKX84NaLj9R7RDBRAbvemtqwWOO/QCwjIyPC7XaL6upqYeX4npycFF6vV59iCYeT340VQA489thjC2688cY7ZJn8NIDSJ/9YJCbu330K+xmU3+7CDYrr/XH4c1juw06kPedj0OttO+8V/eGEiEajwu/3i6qqKukmv/rveAuQBx0dHS8qL69Clu8zNjZ28Up4oE+MR3CDN1DlE6HmubDrtXsSYn0jngA+qZAKKQuYbI/GhVtgv+eW81W2jAmjk59QW1vLBJALTz755FXt7e2XyfJ9QqHQRS/s3fMh8eQ7Z7D717ZF0Os91Bqz7Hk8NAd77bcnsNf7c9gjDkTc0k5+gsfjYQLIhWXLlr2YLredlv6x2MUD9GvAfT+hsbFxuswXau//wRrrZO88RV18Aagu6JxANIYlgacmq6Wd/CoopsQEkIHHH3/8W4r8b6ipkSOaOz4+ftHL/sPAuPi/gXHoZwy3LpR6hc6Gu5tjIgAcNfsmY8JTgSOtE1GX+GUQv4hMTExAJn9y0lVWMgFk4kMf+tB0xl9FhbMhAJL+mUT0tZ3YvqOBufNgth+BVmZaoa1GXeUFEkCBbMG+IDYW8PxklZgEOgyRSCTpKKAgUxxACgJ48cUXX2toaJjevJFV4iTi8YsH5I+UfX/vJO47+dwuMd6EC/wFwJOyECjIiHQFToZiogqoAmjy/3SyCjb5acVGOwrkVjABXJD+C97znvdcnbnXcgoU9U8P1JDtR5F/JCraFkJtv2/PjiVXZjvx7VlYwkHbgr9StgED8UopJ7/TY1wqAujs7Hw10/bLXIHtAr3oTOl//66TUNuvyV8jgg2zYNejlfjTdfY/Lwo2IvMNyBasAL/3RydqpJz8Mm0DHCWALVu2fGb58uUzjr8FAgFHvg8FetJxYGRSPH9iCPoZ52ZjA3/olVjfZ2Mn7J5J7L0cjLgN2YJWT36CLHagowSwZMmSR7P9PSraqlf6ZwZ60Bl/LS2zoLYfrcBW2n6FQEHHu5uxtuBEBEsCelWAHZNfhQx2oGMEoKz+/0m2X859so1OQDbp/+u+EajtV+12icEW3OlBCvyhV2Aj+EIj1hb8azAmfAI3+QbjlUlXQLbJn5x8EtiBjnwDCvxdccUVX5ElSJKZ7pvM91f2/ki4Z82F2n7rbbL9CoGCjxSERIFswRMhrAqgvIBCtqDdk1+WOIAjBNDa2rol3fbLBvLi7QDJsMwX8STY9qN8f6Tt157MyIsJWUBBSOQ5gd5QXFEBOHVDk3/r+WqpJr8Kp+1A2wmA8v0zbb9cstwO6Z+Zekz5/j8C5/tH53ZCbT/ad9dJdowLnYewdxK7vfldyJvMEpRp8tutdKUggPnz52/Wctqvudn6lleU7psJ9Gm/WfV1hopo5gKttE7YfoVAwch/rEPbglhS2ZpxTsDpyS/DNsBWAnj66ac3ZLP9nEC2dF/K90fbfgOzO6VeabHfLQ4NCO5RVIAXmCFItiApAVkmP8FpO9BWAli4cOH9en7fKicg20k/dfVHImn7VeMYnlZYJ22/QqCg5Nq6COx6ZAueC2PVDqUIj4ajUkx+FU7agbYRwLZt2x7v7Oz0m5XoKOmfmWtAZb6Qth+V+Rpsxa3+AXC03QpQItW6hphoc+Mm1uEpvC3460itkKkUnpN2oC2fTLbf+973vvV6/50VEdJs0t+KMl8esv2AgT+y/eokLeFKh7fouVJANVARF99sxh7mOhbEjoOXQlUKEbikeX5OxgFsGVJk+xkp82VF8cRs5wzI9kOX+RqfhUv6aU9m3Mm5+tOqTytY+ip2XU1MvL8KJ91PhxNwW/BnIbmqCDtlB1pOAGT7Kau/ocaedXV10O+SedKPQLYfeu+PLvMlQ8Zfrr0rrfrZ5PQ9YBWwC3xa8M2wTxyMylOeyyk70HIC6Orq2ibDA86W7ktAS/9GIi1wma9P+uUiAFr1acXKd2ZjuTcubvbjVjXqKhQBlw97JihPYQ6ntgGWEgDZfosWLTLV6wrlBGSe9COQ7fdyH7ZV1TB69Zcs8Jdv1Z+pAiIiUIkLtu2n8mHAgODJmFu8Ea6S4rk6ZQdaSgCXXXbZg2avce7cOcigzVbS6f5d2NW/qXUOvMzXe3xyRKu1rPoztnCVZAviVECyfFgIrwKQ5cPMjtOSIYDnn3/+54FAwDStmbVIsqX7Eijd9+Aobt9Ftt858Gk/WQJ/elb9TNzVGIHagieT5wSw5cNeClVL8ZydsAMt+UTq7qOs/jdRFN/soR6zZcIzT/ol/86CMl/o7j40+Z22/Yys+tnwH7OwAcG94MIhPw/VSGELOhEHsGSItbW1vaDafmZJwEyZ8MzGHirQ+f5U5qsYuvvYtepn4v1VWFsw2VUogX0+/zPlFzLAbjsQTgAPP/zw3yur/8r0vzNLAkYCgbnSfa3o7oMu82Vld59CmJqagqz6mXhgFvZ499tgW/BQ1COFLWi3HQgngA984APPZPt7MyRgpEx4tnRfguzdfZws80XPjN6TFWmy7e6EuBUYELSifNhjUwHHCcDubQCUAJS9/7fmz5+fs8yXURLQy4rZ0n0J6DJfBHR3HyeSftRVnzrqWgkKCCJtQSof5gafE3A6IGi3HQglAGX1v7fQ7xghAb1lwnP9PrrMF7q7z5drztte5svKVT8TZAsSCaBAtuC7IXxA0Glb0C47kD4HRgDbt29/rVCZL6MkoKdMeLZ0XwIF/mTv7nNHm33VkO1a9TNBeQHLvDiVQ+XDvAlgxqEy+X/u8DkBO+xAmvy0RYZ8Etl+y5cvv1rPv9FDAloDUrnSfcn2Q5f5sqq7D03MUlr1s+GbzRHo9faBHxltA/ZZ3GbcyTgAFUNR7XUIAXR0dLxq9LSfVhLQ4gRkS/dVpT+6zJdV3X2snJROrfqZWOUKiqs9QRyhReMiAbTP6OTh94adbVNvpR1Ic0kdZ6YJ4JFHHvmSmTJfWkmgUCAwW2MPghXdfQaa50Ovl97dhxSMFc1RnVz16bMppTsYDE4PbLgKCCZg5wSoIOnOkEu8OuWcCrDKDqS5lj4GTBPAypUrHzJ7DS0kkG9S5JL+ydVf8u4+2cp8IUuik9yjld/OVX9kZEQMDQ0l8zDo8+mzKY7jcrmmB1+7Oy7uqMPdZ7J8GEDlUYIRKQrCAyPOKSUrtgHJoF9GfMEUATz33HOP57P9kCSQzwnIlu5LQJf5sqK7T7bWWqjeiOqWyIrCKukEMzw8PJ02TP9Ng5dqORRybz7vDwk/0BY8EowLr8nCIekJRn3RSvHIqDNbAbQdSIoiWyzNMAGkAn9rkV8yHwnkKhOerbFHkhQsyPe3s7tPrniGnlXf7DkKrXLe7/cbShumnIBv1ONiAWQLngwaJ4Cwcj+kJNLx1IRXjMedsQVRdiCNh1yEYpgAZs+evUWr7WdFTECV/rkGebF39zE6edGrvhY5bwara8PiCh8u4NUbJltQ/1aAEooOTM0kD5r833VoK4CwA2nrnC+AbugTnnjiiav02n4IEsi8kVxVg0uhuw8xtp5gIGLVNyPnzeCrddhzArsNdBV6NxhLKohs2H7eIw6G7T+aiYgD0HvLR9SG7qqtre3HRmw/sySQPuFzpfsSSqW7j1YCMLrqI+W8GVypKICbanBqjcqHiZh2VeFTFENvgf4D3x32JZ+XXT0rpxceE3Yg7ftJqeVVGXov+tRTT21YsWLFfDtuPpME1IeR66QfoRi6+2gt80WTEbnqWy3nzYAcAWRAcJeiArTagnunCv/en8Me8etEfVKW08SiZ2nHMzNqB1L8QEsgUTcBLFu27Dt2Dox0ElBXuFwn/QjoMl9WdPfRU+Yr1zan0KrvlJw3HBNxx8WtfpwKIBGgyRaMx6Ztv0L44URNMiZAE4ueJT1XIgIrn6eRbUCuiL9pAiDbr7W11fbjUioJ0ODNJ/3J9kOX+XK6u0+mf5/ehENGOW8GZAu2uXCTqWcqvy1ICkFPF+LTsUrxTEaDUZqgpKjIirbiEA+RjZ56GET0emo5aCYAsv1WrVq13qnBoZJArodRqt190oOB6U04ZJbzxgkyIf61IQi95rGp3IRLCiHT9iuEp89Xib7YzJdIWag08ehdoLcHeoglPc1X07zS+otk+1kd+MsGuhla3Wig0yDP5Wk+fhjd3ccL7e4ztzImbkmcVVZp/U0pifxoZadnoE5wVRrKKOfN4NrqSNIW/FMIQ7z9kYTo8MVErPLiYBgpgyMGcgYmEhXiwbFasalxPK9sJxWmVqM2m4+hdbzQGCkU9JtBGFouTrbf9ddf/4adk55uJluSD7FrQ8PFyYfk91/7yiHsl+haAU353TonmKyNZwREgMTs9GNFco9sOBRxiU+fwdXo81ZWiMv8Fy8a/cFowch/PjzeNCau8Go7z0CLlpqubrTPRSGiV4/36oUmQdrZ2flzO148rXBnzpxJTv5cAZBsDPedfdiMv8a6AHTyX5ksimls8tOzoBdLKoDu3aqOyTJhmScGtQVJ5ofT7DSvBtuvEB4c014zgBQrvUNSBbRtM7I9yGcHGp38mgiAbL/Fixe3WPWyidkoWk1BFNrrFuoHmJkn/8fBCfFq/xj0Ow23LYZe74EW496x+uLViU+SkkjBbj/abnyjIQi1BSnLT7UF902Zv25P1C12TOlXYzS+6Z2Ojo7qeoe57EB1gTCKSg1feLUVEp8mPE18egi0tzd6+OG/DmMz/hrB3X1W+6PJgphGQEE/9bmkp4WWgxqggODqGqwt2BuKiUQsqtn2KwSyBY2CtgNqTgHNhUKqIJsapq2F2ZRv2w48q/t6umG6eRrYRic9EUeyGi8YvtZ2EZjXIbqqcaW5FngThp9X+vMhSy9zkKhqoFRjAy3D/UKcmoBdr7++SfS1zJXqHtV5QKqAiKCpqSlrnIB+h95/+higf2M5AShf6gXlj48Z/QDa1w8ODk5LezONPqZlS9pquPaSWWLnEMB/dblFRes8MaAo7iblGbtAfsdfIl4xEA+KWZX6Vh0Kdmp5VunJUahjxDKAHJ3H31EIALRa0/utWrhEjAMd0puqsdswdXugknpmJijt9dUxQQupkQWUVAMpS7o+bb81uQBvvfXWsJ5z/+q+3swqrweff+uIaRJo7FwkhusulPnq8lWIRh/ue3/UFxa312r/fvROsp0DIFKor6/PGy8gJYDqqOwkfvDOQPIHBf+8BWKiqQ12vbmuuPjlrGFLnwFNVhoH9M7pnRLJ01agUNAvc5Kri282J0GTC3Do0KEbtQxaNRtNzdazq8b5PZeafLHKnl+d/ISjoQRsn0h4I+QVB3UUmSTyLKR8cqkBUlzFHhvonYpAJz+932jTHOh3/HrA+tLdmSnHRO5q0E9N9aa/pzlHv0M/RBhqngjNQVIRNPFz2YiaCOCLX/zim3v37t2VbdLTYRSyNuiL0QDMVpfPCqRHRZfXV4vV843HBBovWTrz+hFsUcbnp7Q9F3pRufK/Czkk6bEBWgGKNSPwPw70Q6/XsOASEQS2wPg7b0R8vCps6zOhMUFjXlUFeiZ53u201l/s6+tbrUzyhLqvT/frEft6vciUyKQCAh4DHV79dWLYM3PCvRsR0MzCg1G3+F2ocHARtXqTs1KMaoC2cr85A/zOyvsdqa6Hfsf76ydsfSa0yJKqJgVIq7yZalGGCeC222478fbbb2/W6tdbjcyod50y+dd26U9XCCxcmvP/OxvOXSTCCJ6azN91hgi1UPFOvQdOik0NPHAQbOsuWAS93i01QeiBpUIxALVPRPrqTlsAFAno0kWf+cxn1it7jikZBkq2rcadS1tFmw4LLzCvU4xX5N6bj8RIBWC7zvwymHuC56pxkLlFKFU18NSxc+LwGO4wkK+lVQy7cPaovyIhbvfb072XEoUyx0P6pEeRgO6NUU9Pzz2yDBhiyEzcc5nGgKDLLSJNrQV/7XQ4rvvEWD78bKpKDMRnPnZ6mVo8XTPKS2Y1QNutR945i7sgneJs64R+x68okx/Z3DTXFpDkPk3wzPeUmQ6MIAHdBLB+/fpNx44d65dh0GRLj7xuTp24srlwEYWWhYs0BYbouPhIGBsQpK2AU5BVDTzyzoCYADov/rntIgQM/JHtd0tt0LL7p8WMxjMtArlUXjZ71ywJGHpCx48fXyPDoMlliz2wqsAx3upaMVij3TU4FcbaglReKt0WVHMm9ASFEFsoWdQA2X5PHz+Hu6DXB/X8CVYG/tTj7oXyN3IRgxkSMEQAt99++5t79ux53emBkyvzrb3GK27NExCk1V/3ngysAramVEC+rkZ6tj7FrAa+ubsXer2GrqXQ613jC2s++qsHNGlV+1wLEecbJ0ZJwLBGGhgYWDs6OhoVkoICgtlsweqmFjHo1i/Bz0SxtuDJmEv8KuhLBnv0Am27OqkGyPb70zlgYI1sPy+2rdbX67BJP6TgyM3RW72pULEPIyRgmADuuOOOEz09PVucnui5Vi+yBYkEMgND7vaFxidtEGsLUnJQokr/YLUiw9IpNfDNPdhaDoGFS6DXu90/BbP90lN0EU0/ECRg6lt87nOf+1Jvb++IkwSQzxajvIB0WzAwd15e268QKA1qPIyTgmQLbo8Yq3yDiAM4rQYo3bdvCvc8fbPblPeLI0ey/W6pwTxneqbpJd2MQOu/00MCpmno+PHj9zlJAIXk8AOr5k0HhhD54EdCCagt+HKkRgwm9GcwouIATqkB2k5tPQbs30C23xxsuwqS/mZtPzWLz2yxVr3vWysJmCYAsgWVrcARpwigkBx+f4tfXDunTrR0LBRTAnNKbjCEnXxPhPSnqpqpAqNHDWgpVmEElPGHtP0a53dCbb8l7qjoNnHcV5X7hVSqVhgpOa6FBCBP7NSpU9eq5wScQCF2pHMCemy/QjhN5wSAg/dwzCsOxby6J6ddCovUgNEONdlwaCwotr8L3DlW1150mhOz+hu/XzWLT2+F3rwT1WDMoBAJQAggFRD8nVMEUIgdyRa8swG7ap8NYQ0QIyrAym1AtoGEUgMPgE/7GbF18+FGZeU3YvvROMyVxWcWWtLE8727XNs5mGZas2bNNU7ZglrKYd1aF4GmcdI5geEwzhYcSrjEyxF9jgByVbZLDbx6Zhxq+1U1NhuydXOBAn9f0Znvr2bx0SptVZ8Gs6W/aI5kK0IK9SIOHDjwPScIQIscrlMm/z1N2DPcp0NYW/CFiF9MJip1vVQnYFQNUOAPfdbfM68Ler3P1eo77ac1i8+OMV4I9B0zSQBKAOvWrfs3p23BfLjZHxXLvDiGpurSY0BbcCpRIZ4NB2wdFHaqgaeOn4PafoF5C0zZuplI5vtrtP3UQztas/hkQSYJwLMRjhw5crsTN6Y1ow6tAqh82CRQBrwVrRYn49q9bDvjAGbUAOX7Q20/C8p8aTntp2bx5Tu0YwWQJJNOAnACuO22257bv3//LrsHotaXQR16qFY/EsjkIIIeFaBWZXISWtTAD8Cn/Zo7OsUUuMxXIdvP6iw+J5SAJXfS39+/2m5bUE+fgLsawtCAIJUPm4riAoJkC/4lVqXpd2UajLnUAOX7Q20/f50YqmmCfvevBybzTny18aYTch9ZAiyTBCwZPWQLHjhwYLus7EedetbWYVVAXygGvd6zIW0qILN2vIxq4BFkhV8FlNSFBNl+Sz3RrHIfkcVnFvn6ApqFZcvHZz/72ZvttgX1BKTIFmxzY21BZOEQsgW3h+Wa3EbUwAvKyo+0/ajMF9r2yyzxjc7iQ6zURUcAhH379n3NzgeVrZlGLpAtSFsBJNDlw34drdV0TkDWWn8xbxU26cflFt65HdDvSLZf+nbQiiw+s7CShCwlADonYKctmKuefi6QLXhlFU66U/mw88AiomQLalEBsgalnjkxDA38Bea2Y22/yth0kU8rs/gQaqooCYDQ09Nzo10Pysg5eStsQeQ5AbIFC50TkC0OkIyJTEXEo0ewtt84uMzXNzxnp0tvW5nFZ3rbY2HCl+UEYHf5ML2++HJvHG4LorsKGa0Z4CQePIwN/FF3HyTI9qN8fzM59qUAW7QjlQ+zyxY0kqdOKgBtC45FsLYgKYF8MHJc1CpQ0O+1s0DryoLuPvfWjiRXfT1xI6dg5ZbEFgIgW3Dv3r0/soXRDOyHKSCItgUHQlHsOYFw/nMCMslX9OpvRXefllgwZxdmVgAWgMqHKUrA8q5CuSoFF8KdDWGsLRivgGYIXjgtmNv+crpVm4odfWOiZzwEu54V3X0+X/E3gnKir6WucTQyUhoEQJCpq1A2PNASgl4PXT6MYgFGyofZBQp+PnhI7u4+X66ZEPXui311I5WZbVuhLXZ4bCUAu8qHGfXF6ZwA0hYkDIPLhz0bqpM2DvDoX4ekL/P1adfIjD21LOopG6wOUtpuIPf29q6zOiBoZj+MVgHvgsuHvR3z5bQFnYwDkO33zMlh3AW9PniZr7s8uW1JGQ5VlXQMQAXZglaXDzOzr6NzApQmDN3HwU8LZl+xnKwP8O192EIf6O4+H/PmL/Ml65l+q9WJIylkVncVMts4g+oHIm3Bs9EKaPmwU3F3VlvQioYhWkC235+HgfFdC7r73OkezDvJqRS6jLCamBwhADu6CpmpW0e2ILqI6GmwLfhjRQVkswWtahiSd/XffwZ6PXR3n/XeUUXZFd4eWXXslgkgC6zuKmTW312rbAOw5cOwtuBUjq5CdlcIonz/08AyX/5kmS9sd5/PVmkLjuo9S8IxAJOwsnwYIn8afU7Ajq5CdvraFNz84RFsdx90ma9/8Z4TtUL79svuSst5Sd4GNecoAVD5MKtsQURAjGzBa2uwNsxg0NquQnbGAcjzh5b56rxEBIFDcqUrKG7w6ZvQTsVRsiFbGe+SIgCC012FCqsA7Es4HbW+q5Ad24DD4yHxYt8YkLFrxVAttszXbVX680Go2KfThVZVWF1qXAoCsLKrECLDi2xBeFchi1WAHTIWmvGXWv2R+JR7QqxyGfP2ZTkfYEdehxSVJKzqKoR6gPCuQvEKMRJCnxOohcY/8uG3Zyegth919xny4AJwtRVx8aUq41WSZDkfYEcDWGlKyVjRVUhPpeB8sKKrUF84bllXIasTgqCn/Vxu4ZmHLfK5xjUq5laaW09ksATt6PwkDQEUQ1ch5DkBsvHGQmHo9dL7CVi1j6UqP1DbL1nmCxd4m6NM/FsSZ0z75+ViCUpVTM6K8mHIgpl3gWMBR5X5b1VXISviAJTv//QJbL4/2va72zecDOQh3rsTSVXpsCM9WSoCoHMC6K5CyNNUV/qi4gYfdlAgVQBBVQFWyEfy/KG23/xOqO23yhUSV7unpu/f7OlIO6LwrAAygO4qhJRyVJzhq/WhZHYZCr3RCjFpQVchdByA8v2hth919wHbfndXXaxOzDbudKr7sjrWypIAyBZ86aWXfnD06FHI9VCJHTSQKDpMraOpljwSp4PYcwL5KgcZJoBhrPKh1R+JT3nOi8WVM9WU2WCezMVCEKiQ9Rhkd3c3bQUul/XBvXLrv4upAG4FaxdhMacOU/3Xe/KwaHnmIej9Hl5wuejpeC/kWq76JhFbgDvu6wlPiWu3fkt4QlMyzzU6/LZZsu903C3xA9ug/PxW1i936ZvbxM5P/TPsemeiQjTFE8JbaX7fWd2Db87cMtKPIYBkmS+s7bfkj/8r++S/b8eOHRs5BqADygN7TflD2gajc47uFs1978CuF3V7Rf858xF21+iQqN35Mvx+m0fPJH/Mwt3YLGIeXIJL9fg50bX7NzJP/hOyTn6pCSBNBUiLS9/YBr3egNdv+pxAwy+sq76+suf3JvcmPhFt64J+p1WvbhU8hkuUABTmPE7ySdbvVzf4rph/6A/Qa54xoQJo7+9TfqxCTXBCdPUeMv79Zs3FqhJFgTX39sg8hF9XxvALTADmsEn5kTYUu+LNbckgFAqjVQFxbtKYy9D4iyctv98lJ3cLT9RAQpS/ToSbsQSw8hVe/UueABQGHZH5QVLwiYJQSJwKxXTbgoE3dyj7/0Hr7zcaTpKA06t/1+7fiprxIZmH7hZl7O5iAsCQwGaSU7J+PwpCUTAKhajLIwbGtfvXlQoJ1e58xb777T0o6s5r36q4mmaLMNAyJcW1ZOcvZB6yo8Ww+hcNAaSwUeYvhw5G9Qqv5vJhda/8RFQG7S1ldemRnRpnv1uI1nnYbdcb22S3/TamlCsTAFAFvCYuJFNICQpGIW3BJAkMFw59eM6eEjV73rL/fkfPiDlDpwpL/6ZZIubBpdRaEXgFg2y/TcUyr4pJAagqQNqAIDoodc5TU9AWrHv5J47d74qjfyow+30iPLcTqzze/KnsY3RdMU2ooiKAlC0oLbtSUGrJTmxA8ORI7mOtNXt/b6ntV/B+gxNiyck9uef/nPnQz5tzbE8x2H6vMQFYCyKAE7J+OQoIIm3BoLdaDGSxBSnwF3hjh/P323swqy3oItuvAdfbj57pCnDiVbmv/kVJAMVgC6IHal9wpi1I6b522H4F7zcaVrYCMwOClXM7oJ+zUCFWyW2/76cUKhOADSRA2VXS2oIUpKJgFQpRt0f0p50Pv5Dv/4o893vmyEXnBNwtrSJSHYBdvwjy/SkutbEY51JREkAKcp8TAAer+l0107YgJf3YbfsVwtITqeQgl1skZrVjr/3HX8hu+20oFtuvZAgglWUltS2ItqtOnhtN5vs7YfsVvF9FAdA5AZ+y+iNtPwr8SW777U4lqhUl3KK4QSpgtfJTL+OXW/nq1uTgHWxfjHlZsaho2v+GtC+DYgFVtbUienIv5Ho1Y0OyT37plWghSFsRSCu6u7tp73WvYDDsx3Zl9V9dzDdQWexvIFVs4QSPRQav/mVIACms47HIsBn3FaPtV5IEkMq+ep3HJMMmkOLcVAo3UllCL4VVAMMubCxW269kCSAlx77PY5NhMV4vZtuvlBVAkpmFxKcFGSUzxgQTgJwqYKTUXhBDKmwpttN+5aYARKoYw24eqwwwijbfv6wIIIUNPF4ZYGwqBdsvE0WfCZgL3d3ddGLwJh63DACozFdnKd5YZQm/NFYBDB5L5UoAsncVYhQNpO/uwwSQZ98m2BZk8OpfngQge/kwhvT4fjF092ECyE8CmwWfE2DoR0nafmVHACls5PHM0DtmSiXfPx9K1gbMRHd3NymBtTyuGRpQsrZfuSoAVQVwQJChBevK5UbLhgBk7yrEkAavl1q+PxPA3yB1VyEGr/5MANaqALYFGflwXynm+zMBXEwCUncVYjiG0XLcIlaW6ctmFcCYMSbKwfbLRNnYgJlgW5CRBurus7Icb7yyjF/6BsG2IKPMFWHZEgCXD2OksL2cbD8mgItJgG3B8saoKPN4UCWPAe4nUMbYVG62HxPATBVA8o9twfJDyXT3YQJgFcDQj43laPsxAWRXASQDuatQ+aCkuvswAYBWBMG2YDm9awYTwEUqgOTgNRwPKPl9/83lbPtlomwzARkMBhMAg8EEwGAwmAAYDAYTAIPBYAJgMBhMAAwGgwmAwWAwATAYDCYABoPBBMBgMJgAGAwGEwCDwWACYDAYTAAMBoMJgMFgMAEwGAwmAAaDwQTAYDCYABgMBhMAg8FgAmAwGEwADAaDCYDBYNiA/xdgAI48f6T4c9ZhAAAAAElFTkSuQmCC;" vertex="1" parent="1">
          <mxGeometry x="608" y="150" width="59" height="59" as="geometry" />
        </mxCell>
        <mxCell id="VBNxlW6NnqshUpCFo_7A-15" value="&lt;font style=&quot;font-size: 15px;&quot;&gt;+ Source code&lt;br&gt;+ dockerfile&lt;br&gt;+ repositories&lt;/font&gt;" style="shape=ext;double=1;whiteSpace=wrap;html=1;aspect=fixed;strokeWidth=2;fillColor=none;strokeColor=#6c8ebf;" vertex="1" parent="1">
          <mxGeometry x="42" y="372" width="218" height="218" as="geometry" />
        </mxCell>
        <mxCell id="VBNxlW6NnqshUpCFo_7A-16" value="&lt;b&gt;&lt;font color=&quot;#3d19f0&quot;&gt;Code Repo&lt;/font&gt;&lt;/b&gt;" style="text;html=1;align=center;verticalAlign=middle;resizable=0;points=[];autosize=1;strokeColor=none;fillColor=none;fontSize=15;" vertex="1" parent="1">
          <mxGeometry x="34" y="368" width="100" height="30" as="geometry" />
        </mxCell>
        <mxCell id="VBNxlW6NnqshUpCFo_7A-30" style="edgeStyle=elbowEdgeStyle;rounded=0;orthogonalLoop=1;jettySize=auto;elbow=vertical;html=1;strokeColor=#808080;" edge="1" parent="1">
          <mxGeometry relative="1" as="geometry">
            <mxPoint x="480" y="426" as="targetPoint" />
            <mxPoint x="390" y="425.5" as="sourcePoint" />
          </mxGeometry>
        </mxCell>
        <mxCell id="VBNxlW6NnqshUpCFo_7A-35" value="" style="whiteSpace=wrap;html=1;strokeWidth=2;fontSize=15;fillColor=none;dashed=1;dashPattern=8 8;imageAspect=0;strokeColor=#9673a6;" vertex="1" parent="1">
          <mxGeometry x="96" y="451" width="110" height="60" as="geometry" />
        </mxCell>
        <mxCell id="VBNxlW6NnqshUpCFo_7A-32" value="- Build Image&lt;br style=&quot;border-color: var(--border-color);&quot;&gt;- tag latest image&lt;br style=&quot;border-color: var(--border-color);&quot;&gt;- update manifest" style="shape=ext;double=1;whiteSpace=wrap;html=1;strokeWidth=2;fillColor=none;strokeColor=#d79b00;" vertex="1" parent="1">
          <mxGeometry x="500" y="392" width="198" height="198" as="geometry" />
        </mxCell>
        <mxCell id="VBNxlW6NnqshUpCFo_7A-37" value="Jenkins" style="shape=image;verticalLabelPosition=bottom;labelBackgroundColor=none;verticalAlign=top;aspect=fixed;imageAspect=0;image=data:image/svg+xml,PHN2ZyB4bWxuczpjYz0iaHR0cDovL2NyZWF0aXZlY29tbW9ucy5vcmcvbnMjIiB4bWxuczpkYz0iaHR0cDovL3B1cmwub3JnL2RjL2VsZW1lbnRzLzEuMS8iIHhtbG5zOmlua3NjYXBlPSJodHRwOi8vd3d3Lmlua3NjYXBlLm9yZy9uYW1lc3BhY2VzL2lua3NjYXBlIiB4bWxuczpyZGY9Imh0dHA6Ly93d3cudzMub3JnLzE5OTkvMDIvMjItcmRmLXN5bnRheC1ucyMiIHhtbG5zOnNvZGlwb2RpPSJodHRwOi8vc29kaXBvZGkuc291cmNlZm9yZ2UubmV0L0RURC9zb2RpcG9kaS0wLmR0ZCIgeG1sbnM6c3ZnPSJodHRwOi8vd3d3LnczLm9yZy8yMDAwL3N2ZyIgeG1sbnM9Imh0dHA6Ly93d3cudzMub3JnLzIwMDAvc3ZnIiB4bWxuczp4bGluaz0iaHR0cDovL3d3dy53My5vcmcvMTk5OS94bGluayIgdmVyc2lvbj0iMS4xIiBpZD0ic3ZnMjQ4MSIgaW5rc2NhcGU6dmVyc2lvbj0iMC45Mi4zICgyNDA1NTQ2LCAyMDE4LTAzLTExKSIgc29kaXBvZGk6ZG9jbmFtZT0iamVua2lucy5zdmciIHg9IjBweCIgeT0iMHB4IiB2aWV3Qm94PSIwIDAgNDMuMzkgNDcuODIiIHN0eWxlPSJlbmFibGUtYmFja2dyb3VuZDpuZXcgMCAwIDQzLjM5IDQ3LjgyOyIgeG1sOnNwYWNlPSJwcmVzZXJ2ZSI+JiN4YTs8c29kaXBvZGk6bmFtZWR2aWV3IGJvcmRlcmNvbG9yPSIjNjY2NjY2IiBib3JkZXJvcGFjaXR5PSIxIiBmaXQtbWFyZ2luLWJvdHRvbT0iMCIgZml0LW1hcmdpbi1sZWZ0PSIwIiBmaXQtbWFyZ2luLXJpZ2h0PSIwIiBmaXQtbWFyZ2luLXRvcD0iMCIgZ3JpZHRvbGVyYW5jZT0iMTAiIGd1aWRldG9sZXJhbmNlPSIxMCIgaWQ9Im5hbWVkdmlldzI0ODMiIGlua3NjYXBlOmN1cnJlbnQtbGF5ZXI9InN2ZzI0ODEiIGlua3NjYXBlOmN4PSIzOC45MDIzMDgiIGlua3NjYXBlOmN5PSI5LjMxNTMxNyIgaW5rc2NhcGU6cGFnZW9wYWNpdHk9IjAiIGlua3NjYXBlOnBhZ2VzaGFkb3c9IjIiIGlua3NjYXBlOndpbmRvdy1oZWlnaHQ9IjEwMTciIGlua3NjYXBlOndpbmRvdy1tYXhpbWl6ZWQ9IjEiIGlua3NjYXBlOndpbmRvdy13aWR0aD0iMTkyMCIgaW5rc2NhcGU6d2luZG93LXg9Ii04IiBpbmtzY2FwZTp3aW5kb3cteT0iLTgiIGlua3NjYXBlOnpvb209IjYuNTkyNzExNCIgb2JqZWN0dG9sZXJhbmNlPSIxMCIgcGFnZWNvbG9yPSIjZmZmZmZmIiBzaG93Z3JpZD0iZmFsc2UiPiYjeGE7CTwvc29kaXBvZGk6bmFtZWR2aWV3PiYjeGE7PGcgaWQ9ImcyNDc5IiB0cmFuc2Zvcm09InRyYW5zbGF0ZSgtMC43NSwtMC43NTA5OTM0NSkiPiYjeGE7CTx0aXRsZSBpZD0idGl0bGUyMzExIj5QYWdlLTE8L3RpdGxlPiYjeGE7CTxnIGlkPSJncm91cDE2NDEtMSIgdHJhbnNmb3JtPSJ0cmFuc2xhdGUoMC43NSwtMC43NSkiPiYjeGE7CQk8dGl0bGUgaWQ9InRpdGxlMjMxMyI+SmVua2luczwvdGl0bGU+JiN4YTsJCTxnIGlkPSJncm91cDE2NDItMiI+JiN4YTsJCQk8dGl0bGUgaWQ9InRpdGxlMjMxNSI+ZzE0NTI0PC90aXRsZT4mI3hhOwkJCTxnIGlkPSJzaGFwZTE2NDMtMyI+JiN4YTsJCQkJPHRpdGxlIGlkPSJ0aXRsZTIzMTciPnBhdGgxNDQ2MDwvdGl0bGU+JiN4YTsJCQkJPHBhdGggaWQ9InBhdGgyMzE5IiBpbmtzY2FwZTpjb25uZWN0b3ItY3VydmF0dXJlPSIwIiBzdHlsZT0iZmlsbDojMjgyNDI1OyIgZD0iTTQwLjY2LDM4LjEyYy0wLjcxLTAuNzUtMS41LTEuMzctMi4yNS0yLjA1ICAgICAgYy0wLjU3LTAuNDItMC43MS0xLjIyLTAuMzEtMS44MWMzLjM5LTYuMjYsMy44LTEyLjk4LDIuODYtMTkuODZjLTAuOTMtNi40Ny03LTEyLjQtMTMuNjgtMTIuODVjLTEuODgtMC4wOS0zLjc3LTAuMDUtNS42NSwwLjExICAgICAgYy00LjIyLDAuNzUtNy44OCwyLjY5LTExLjM4LDVDOC45Niw3LjQ5LDgsOC43NCw3LjUxLDEwLjE5Yy0wLjA4LDAuMjItMC4xOCwwLjUyLTAuMzUsMC42M2MtMS44NywxLjA2LTIuMzcsMi44Ni0yLjU2LDQuNzUgICAgICBjLTAuMDcsMS4wOC0wLjA1LDIuMTYsMC4wNywzLjIzYzAuMDgsMC42OS0wLjA1LDEuMzktMC4zNiwyLjAyYy0xLjAzLDIuMTYtMC42OSw0LjM1LDAuMTYsNi40OGMwLjYxLDEuOCwyLjA3LDMuMTcsMy45LDMuNjcgICAgICBjMC4yNiwwLjExLDAuNDYsMC4zMywwLjU2LDAuNTljMC40NywxLjEzLDAuODMsMi4zMSwxLjM1LDMuNDJjMC41MywxLjExLDAuNTYsMS41NS0wLjYxLDIuMjVjLTIuOCwxLjczLTUuNjQsMy4zOS04LjQ3LDUuMDkgICAgICBjLTAuNDMsMC4zMi0wLjg0LDAuNjktMS4yLDEuMDl2MS4xMmMwLjUyLDEuNDgsMS4yLDMuMjksMS43Miw0Ljc5aDM5LjQyYzAuNzUtMi4zNiwxLjUtNS4wNCwyLjI1LTcuNHYtMC43NSAgICAgIEM0Mi40NSw0MC4xNSw0MS42MSwzOS4xLDQwLjY2LDM4LjEyeiBNMzAuMjksNDMuNjRjMC4wNywwLjU4LTAuMzUsMS4xMS0wLjkzLDEuMTdjLTAuMDMsMC0wLjA2LDAuMDEtMC4wOSwwLjAxICAgICAgYy0wLjU3LDAuMDYtMC44Ny0wLjQ3LTAuODktMS43N2MwLjI2LTAuMjIsMC41Ni0wLjM4LDAuODgtMC40OEMyOS45Miw0Mi41NywzMC4yNyw0My4wMiwzMC4yOSw0My42NHoiLz4mI3hhOwkJCTwvZz4mI3hhOwkJCTxnIGlkPSJzaGFwZTE2NDQtNSIgdHJhbnNmb3JtPSJ0cmFuc2xhdGUoNS43LC04LjA0NzUpIj4mI3hhOwkJCQk8dGl0bGUgaWQ9InRpdGxlMjMyMiI+cGF0aDE0NDYyPC90aXRsZT4mI3hhOwkJCQk8cGF0aCBpZD0icGF0aDIzMjQiIGlua3NjYXBlOmNvbm5lY3Rvci1jdXJ2YXR1cmU9IjAiIHN0eWxlPSJmaWxsOiNFRUQ0QjU7IiBkPSJNMjguNzUsMTkuODNjMC43My0wLjIsMS40OS0wLjI5LDIuMjUtMC4yNiAgICAgIGMxLjY0LDAuMjMsMi45MiwxLjUyLDMuMTMsMy4xNmMxLjE1LDcuNTYsMC42OCwxNC45Mi00LjQ2LDIxYy0zLjEzLDMuNzUtOS4yMSw1LjU5LTE0LjMzLDEuMDVjLTEuMjctMS4yNy0yLjQ2LTIuNjEtMy41Ni00LjAzICAgICAgYy0wLjIxLTAuMjUtMC40MS0wLjUtMC43NS0wLjkxYzAuMzksMi4yNSwyLjE4LDQuNSw1LjQsNy4wNmMtMC44MiwwLjQtMS42OSwwLjctMi41OSwwLjljLTEuMy0wLjAyLTIuNTktMC4xNC0zLjg3LTAuMzggICAgICBDNy4zLDQ0LjU3LDYuOSw0MS4yNSw2LjU4LDM3LjM4YzAtMC4zNi0wLjQ2LTAuNjktMC43LTEuMDRjLTAuMzgsMC4wNS0wLjc1LDAuMTUtMS4xLDAuM2MtMS41NiwwLjk4LTIuNzcsMC43NS0zLjkyLTAuODIgICAgICBMMC42NywzNS42TDAsMzQuNzdjMC4wOC0wLjI0LDAuMDQtMS4zNiwwLjA4LTEuNjJjMC4xNC0xLjA4LDAuOC0wLjc1LDAuOTItMS44N2wwLjkzLTAuMzdjLTAuMzYsMi4xMi0wLjI4LDIuODQsMC4zNCwzLjU1ICAgICAgYzAuMDEtMC42OCwwLjA2LTEuMzYsMC4xNS0yLjAzYzAuMDctMC4zMywwLjQtMC42MywwLjYxLTAuOTRjMC4zMSwwLjE5LDAuNjEsMC40MiwwLjg3LDAuNjhjMC4yOCwwLjQxLDAuNTMsMC44NCwwLjc1LDEuMjggICAgICBjMC4yNi0xLjI5LTAuNjUtMy4xNi0xLjI3LTMuOTdjMC4zNywwLDEuMjUsMS4wMywxLjYxLDEuMDRsMC4wOCwwLjI2bDAuMzQsMC45NWMwLjI3LDAsMC4yNSwwLjEzLDAuNTUsMC4xMiAgICAgIGMxLjM4LTAuMDksMi4wNi0wLjYsMS43My0xLjg5Yy0wLjk0LTMuOC0wLjA1LTcuNC0wLjE5LTguOWMwLjI4LTAuNDMsMC43LTIuMjksMC45NC0yLjc1YzEuMzEtMi41NSwzLjM4LTMuOCw2LTUuMDQgICAgICBjMy43NS0xLjc4LDYuMzUtMS4yOCwxMC40MS0wLjYzYzAuMzQsMC4wNSwyLjMsMC44MywyLjY1LDAuODZjMS40MSwxLjIxLDIuNzIsMi41MiwzLjkzLDMuOTNjLTEuMjcsMC4yMy0xLjk2LTAuNTMtMi4yNSwwLjc1ICAgICAgQzI5LjAzLDE4LjY2LDI4LjE0LDE5Ljc0LDI4Ljc1LDE5LjgzeiBNMzEuODksMjQuMzNjLTAuMjEsMC4wNCwwLjcxLDIuMzcsMC44OCwyLjc3bC0xLjM2LDAuMjJsLTEuMzUsMC4xOWwtMC4xNywwLjI3ICAgICAgYzAuMzMsMC4zMywwLjYxLDAuOCwxLjAxLDAuOTZjMC43NSwwLjMzLDIuMzMtMC4yNSwyLjg1LTAuOTRjMC4xLTAuMTQsMC4yMy0wLjM4LDAuMTgtMC40OGMtMC42Mi0xLjI0LTEuMjctMi40NS0xLjk4LTMuODMgICAgICBMMzEuODksMjQuMzN6IE0xMi41NiwyMi42MmwwLjQxLDAuNzVjMC4wOC0wLjA3LDAuMTYtMC4xNCwwLjIzLTAuMjJjMC4wNS0wLjA4LDAuMDktMC4xNiwwLjEzLTAuMjRjMC45Mi0xLjg0LDIuMjUtMyw0LjQ1LTIuNzIgICAgICBjMC43NSwwLjA5LDAuNjEtMC40NiwwLjM2LTAuODRjLTAuMjItMC4yNS0wLjQ3LTAuNDgtMC43NS0wLjY2QzE1LjA2LDE3LjM0LDExLjk0LDIxLjk5LDEyLjU2LDIyLjYyeiBNMjAuMzksMjYuODlMMjEsMjcuNzUgICAgICBjLTEuMTYsMC43NS0yLjMzLDAuMDYtMy40MywwLjE1Yy0wLjM1LDAuNzUtMC4wOSwxLjI4LDAuNTgsMS4zOWMwLjkyLDAuMiwxLjg4LDAuMjMsMi44MSwwLjA4YzEuMjktMC4yOCwxLjUtMS41LDAuNjQtMi40OSAgICAgIGMtMC4zNi0wLjM4LTAuNjgtMC43OS0wLjk2LTEuMjNjLTAuMzQtMC41OC0wLjU5LTEuMjItMC45NS0xLjk1bC0wLjE4LDAuNmMtMC42MywwLjIzLDAuMjUsMi42NSwwLjg5LDIuNTlMMjAuMzksMjYuODl6ICAgICAgIE0yOC4wOSw0MS42MWMtMS42MSwwLTMuMDMsMC4wOC00LjQ0LDBjLTEuNzgtMC4xMS0zLjQzLTAuNTctNC40MS0yLjI5Yy0wLjA5LTAuMTctMC41Mi0wLjE0LTAuOTQtMC4yMyAgICAgIGMxLjU4LDIuNTIsMy4xNyw0LjU2LDYuMzEsNC4wNkMyNS44Myw0Mi45MiwyNy4xOSw0My4xMSwyOC4wOSw0MS42MXogTTI2LjkxLDM4LjQ1bC03LjM1LTAuNzVjMi4wMSwyLjI1LDQuNjQsMi4zMyw3LjM1LDIuNDMgICAgICBWMzguNDV6IE0yNy42NiwzOS44OGMyLjE0LDAsNC4wNC0xLjM5LDQuNjktMy40M2wtNC42OSwxLjlMMjcuNjYsMzkuODh6Ii8+JiN4YTsJCQk8L2c+JiN4YTsJCQk8ZyBpZD0ic2hhcGUxNjQ1LTciIHRyYW5zZm9ybT0idHJhbnNsYXRlKDQuNDU1LC0xLjU5KSI+JiN4YTsJCQkJPHRpdGxlIGlkPSJ0aXRsZTIzMjciPnBhdGgxNDQ2NDwvdGl0bGU+JiN4YTsJCQkJPHBhdGggaWQ9InBhdGgyMzI5IiBpbmtzY2FwZTpjb25uZWN0b3ItY3VydmF0dXJlPSIwIiBzdHlsZT0iZmlsbDojMzM1MDYxOyIgZD0iTTE1LjQ5LDQ5LjMySDAuNjEgICAgICBjLTAuMTQtMC44Mi0wLjIyLTEuNjYtMC40NS0yLjQ2Yy0wLjE2LTAuNTksMC0wLjg0LDAuNTQtMS4wNWMyLjAxLTAuODcsNC4wMi0xLjc2LDYtMi42N2MwLjc1LTAuMzMsMS40LTAuNzUsMi4xLTEuMTIgICAgICBjMS4zOSwwLjg4LDIuNzUsMS44Myw0LjIsMi42YzAuOTMsMC41LDEuNzcsMC44NCwxLjgzLDIuMTJDMTQuOTYsNDcuNjIsMTUuMTgsNDguNDksMTUuNDksNDkuMzJ6Ii8+JiN4YTsJCQk8L2c+JiN4YTsJCQk8ZyBpZD0ic2hhcGUxNjQ2LTkiIHRyYW5zZm9ybT0idHJhbnNsYXRlKDEzLjExNzUsLTM1LjI1KSI+JiN4YTsJCQkJPHRpdGxlIGlkPSJ0aXRsZTIzMzIiPnBhdGgxNDQ2NjwvdGl0bGU+JiN4YTsJCQkJPHBhdGggaWQ9InBhdGgyMzM0IiBpbmtzY2FwZTpjb25uZWN0b3ItY3VydmF0dXJlPSIwIiBzdHlsZT0iZmlsbDojRjNFMUNBOyIgZD0iTTIwLjAzLDQwLjcxYy0wLjM1LDAtMC43LDAtMS4wNi0wLjA5ICAgICAgQzE1LDM5Ljg1LDEwLjg5LDQwLjMzLDcuMjEsNDJjLTIuNTMsMS4yMy00LjU4LDMuMjgtNS44LDUuODJjLTAuMjMsMC40NS0xLjA0LDEuMTEtMS4zMywxLjVjLTAuMDgtMC45OCwwLjA1LTIuMDMsMC0zICAgICAgYzAuMDQtMC40MSwwLjE4LTAuOCwwLjQxLTEuMTRjMC40OS0wLjc4LDEuMDYtMS41MSwxLjcxLTIuMTdjMi4xNC0xLjk1LDQuNS0zLjcxLDcuMzUtNC4zNCAgICAgIEMxMy4yNywzNy44NSwxNi43NiwzOC44NiwyMC4wMyw0MC43MXoiLz4mI3hhOwkJCTwvZz4mI3hhOwkJCTxnIGlkPSJzaGFwZTE2NDctMTEiIHRyYW5zZm9ybT0idHJhbnNsYXRlKDYuNTk0MDUsLTI2Ljk3NzUpIj4mI3hhOwkJCQk8dGl0bGUgaWQ9InRpdGxlMjMzNyI+cGF0aDE0NDY4PC90aXRsZT4mI3hhOwkJCQk8cGF0aCBpZD0icGF0aDIzMzkiIGlua3NjYXBlOmNvbm5lY3Rvci1jdXJ2YXR1cmU9IjAiIHN0eWxlPSJmaWxsOiM2RDZCNkQ7IiBkPSJNNS45LDM4Ljc2YzAuMDcsMS4yNiwwLjA1LDIuNTItMC4wNCwzLjc4ICAgICAgYy0wLjMyLDIuMS0wLjc1LDMsMC4xNSw1LjgxYzAuMDgsMC4yNC0wLjEyLDAuNTgtMC4yMSwwLjk3Yy0wLjI1LTAuMTktMC4zMy0wLjIxLTAuMzQtMC4yNmMtMC43NS0yLjU5LTIuMjUtMy40MS01LjI1LTIuODMgICAgICBjLTAuNC0xLjM0LTAuMjctMi43OSwwLjM3LTQuMDNDMS41OSwzOS45MywzLjYxLDM5LjA3LDUuOSwzOC43NnoiLz4mI3hhOwkJCTwvZz4mI3hhOwkJCTxnIGlkPSJzaGFwZTE2NDgtMTMiIHRyYW5zZm9ybT0idHJhbnNsYXRlKDIuMDkyNSwtMS42MDUpIj4mI3hhOwkJCQk8dGl0bGUgaWQ9InRpdGxlMjM0MiI+cGF0aDE0NDcwPC90aXRsZT4mI3hhOwkJCQk8cGF0aCBpZD0icGF0aDIzNDQiIGlua3NjYXBlOmNvbm5lY3Rvci1jdXJ2YXR1cmU9IjAiIHN0eWxlPSJmaWxsOiM0ODcwODk7IiBkPSJNMTEuMTcsNDIuMDJjLTAuNywwLjM3LTEuMzgsMC44LTIuMSwxLjEyICAgICAgYy0xLjk5LDAuOTEtNCwxLjgtNiwyLjY3Yy0wLjUsMC4yMS0wLjcsMC40Ni0wLjU0LDEuMDVjMC4yMywwLjgsMC4zMSwxLjY0LDAuNDUsMi40NkgxLjFjLTAuMzctMC45NS0wLjc5LTEuODktMS4xLTIuODUgICAgICBjLTAuMDYtMC4zMSwwLjAyLTAuNjMsMC4yMy0wLjg3YzIuNTItMi4wOCw1LjI5LTMuODUsOC4yNS01LjI1YzAuNTEtMC4zMSwxLjE3LTAuMTcsMS41LDAuMzIgICAgICBDMTAuMzksNDEuMTcsMTAuNzksNDEuNTcsMTEuMTcsNDIuMDJ6Ii8+JiN4YTsJCQk8L2c+JiN4YTsJCQk8ZyBpZD0ic2hhcGUxNjQ5LTE1IiB0cmFuc2Zvcm09InRyYW5zbGF0ZSgzNi43OTUsLTEuNTgyNSkiPiYjeGE7CQkJCTx0aXRsZSBpZD0idGl0bGUyMzQ3Ij5wYXRoMTQ0NzI8L3RpdGxlPiYjeGE7CQkJCTxwYXRoIGlkPSJwYXRoMjM0OSIgaW5rc2NhcGU6Y29ubmVjdG9yLWN1cnZhdHVyZT0iMCIgc3R5bGU9ImZpbGw6IzMzNEY2MDsiIGQ9Ik0zLjYxLDQ5LjMyTDEsNDkuMjdjMC0wLjE1LDAtMC4zNy0wLjA2LTAuNDQgICAgICBDMCw0OC4wMiwwLjI5LDQ3LjEsMC41Miw0Ni4wOGMwLjMtMS42MSwwLjE1LTMuMjctMC40NS00LjhjMC4yMiwwLjEsMC40MywwLjIxLDAuNjMsMC4zM2MxLjM1LDAuOTQsMi43LDEuODksNC4wNCwyLjgzICAgICAgTDMuNjEsNDkuMzJ6Ii8+JiN4YTsJCQk8L2c+JiN4YTsJCQk8ZyBpZD0ic2hhcGUxNjUwLTE3IiB0cmFuc2Zvcm09InRyYW5zbGF0ZSgxMC40ODE2LC05Ljg0KSI+JiN4YTsJCQkJPHRpdGxlIGlkPSJ0aXRsZTIzNTIiPnBhdGgxNDQ3NDwvdGl0bGU+JiN4YTsJCQkJPHBhdGggaWQ9InBhdGgyMzU0IiBpbmtzY2FwZTpjb25uZWN0b3ItY3VydmF0dXJlPSIwIiBzdHlsZT0iZmlsbDojRjJFMEM5OyIgZD0iTTEuMDgsMzguMTZjMC4yNCwwLjM0LDAuOTMsMC42NywwLjk2LDEuMDMgICAgICBjMC4zMSwzLjg3LDEuNCw3LjI4LDQuMDgsMTAuMTNjLTEuNTMsMC4wMS0yLjkzLTAuODItMy42Ni0yLjE2Yy0wLjkzLTEuOTEtMS42Mi0zLjkzLTIuMzgtNS45MWMtMC4yNS0wLjU5LTAuMDktMS4yNywwLjM5LTEuNyAgICAgIEMwLjc1LDM5LjEyLDAuOTUsMzguNjUsMS4wOCwzOC4xNnoiLz4mI3hhOwkJCTwvZz4mI3hhOwkJCTxnIGlkPSJzaGFwZTE2NTEtMTkiIHRyYW5zZm9ybT0idHJhbnNsYXRlKDMxLjMyLC0zLjU3KSI+JiN4YTsJCQkJPHRpdGxlIGlkPSJ0aXRsZTIzNTciPnBhdGgxNDQ3NjwvdGl0bGU+JiN4YTsJCQkJPHBhdGggaWQ9InBhdGgyMzU5IiBpbmtzY2FwZTpjb25uZWN0b3ItY3VydmF0dXJlPSIwIiBzdHlsZT0iZmlsbDojQ0YzNzMzOyIgZD0iTTQuNyw0NC43M2MwLjExLDEuMjUsMC4yMywyLjQ5LDAuMywzLjc1ICAgICAgYzAsMC41Ny0wLjMxLDAuODQtMC45MSwwLjc1bC0zLjc1LTAuNTdDMC4yOCw0OC4wMywwLDQ3LjExLDAuNzYsNDcuMDdjMC43NS0wLjA1LDAuODItMS4zNSwwLjg2LTEuOSAgICAgIGMwLjA5LTEuMzEsMC41MS0wLjksMS44NC0xLjA4QzMuODgsNDQuMDQsNC4yNyw0NC43OSw0LjcsNDQuNzN6Ii8+JiN4YTsJCQk8L2c+JiN4YTsJCQk8ZyBpZD0ic2hhcGUxNjUyLTIxIiB0cmFuc2Zvcm09InRyYW5zbGF0ZSgyMC4wMSwtMC42MykiPiYjeGE7CQkJCTx0aXRsZSBpZD0idGl0bGUyMzYyIj5wYXRoMTQ0Nzg8L3RpdGxlPiYjeGE7CQkJCTxwYXRoIGlkPSJwYXRoMjM2NCIgaW5rc2NhcGU6Y29ubmVjdG9yLWN1cnZhdHVyZT0iMCIgc3R5bGU9ImZpbGw6I0QxMzgzMzsiIGQ9Ik0zLjgxLDQ4Ljg0Yy0wLjU1LDAuMjEtMS4xMSwwLjM3LTEuNjgsMC40OCAgICAgIEMxLjc2LDQ5LjI4LDEuNDEsNDkuMTcsMS4wOCw0OWMwLTAuMDQtMC4wMi0wLjA4LTAuMDUtMC4xMWwtMC4xNS0wLjc1Yy0wLjQ0LTEuNC0wLjcxLTIuODUtMC44MS00LjMxICAgICAgQzAsNDIuOTksMS4xLDQyLjE2LDEuNzIsNDIuMThjMS4yMiwwLjE1LDIuNDMsMC4zOSwzLjYyLDAuN2MwLjIyLDAsMC42OCwwLjMyLDAuNjIsMC41MmMtMC4yMiwwLjc1LTAuMTYsMS4xOCwwLjMyLDEuMzUgICAgICBDNi43Myw0NSw3LjIxLDQ1LjIsNy43LDQ1LjM2Yy0wLjE2LDAuMzktMC4yMiwwLjkzLTAuNTIsMS4xNUM2LjEsNDcuMzIsNC45NSw0OC4wNiwzLjgxLDQ4Ljg0eiIvPiYjeGE7CQkJPC9nPiYjeGE7CQkJPGcgaWQ9InNoYXBlMTY1My0yMyIgdHJhbnNmb3JtPSJ0cmFuc2xhdGUoMjAuMDY1NywtMS43ODUpIj4mI3hhOwkJCQk8dGl0bGUgaWQ9InRpdGxlMjM2NyI+cGF0aDE0NDgwPC90aXRsZT4mI3hhOwkJCQk8cGF0aCBpZD0icGF0aDIzNjkiIGlua3NjYXBlOmNvbm5lY3Rvci1jdXJ2YXR1cmU9IjAiIHN0eWxlPSJmaWxsOiNFNTNCMzk7IiBkPSJNNy42Niw0Ni40OWMtMC41MS0wLjA0LTEuMDEtMC4xMy0xLjUtMC4yNyAgICAgIGMtMC40Ny0wLjE3LTAuOTQtMC40NC0wLjc1LTEuMTdjLTAuMDMtMC4zMi0wLjIyLTAuNi0wLjUxLTAuNzVjLTEuMTItMC4yLTIuMjUtMC4zMS0zLjM4LTAuMzRjLTAuNjIsMC0wLjksMC43NS0wLjgzLDEuNjEgICAgICBjMC4xMSwxLjIzLDAuMTEsMi40OSwwLjE1LDMuNzVjLTAuODUtMS43NC0xLjEzLTMuNjktMC44MS01LjZjMC4yLTEuMjUsMC43LTEuNjYsMS44OS0xLjI4YzEuMTgsMC4zNywyLjQ5LDAuOTEsMy43MSwxLjQyICAgICAgYzAuNjQsMC4yNywxLjI1LDAuNjQsMi4xMSwxLjA4bC0xLjY1LDAuNzFMNy42Niw0Ni40OXoiLz4mI3hhOwkJCTwvZz4mI3hhOwkJCTxnIGlkPSJzaGFwZTE2NTQtMjUiIHRyYW5zZm9ybT0idHJhbnNsYXRlKDQuNzQsLTIyLjAyNzUpIj4mI3hhOwkJCQk8dGl0bGUgaWQ9InRpdGxlMjM3MiI+cGF0aDE0NDgyPC90aXRsZT4mI3hhOwkJCQk8cGF0aCBpZD0icGF0aDIzNzQiIGlua3NjYXBlOmNvbm5lY3Rvci1jdXJ2YXR1cmU9IjAiIHN0eWxlPSJmaWxsOiNFRkREQzc7IiBkPSJNNiw0NC40OUg0Ljg5Yy0wLjQ4LTAuMjUtMC45OC0wLjQ1LTEuNS0wLjU4ICAgICAgYy0wLjY3LTAuMS0xLjMsMC4zNi0xLjQsMS4wNGMtMC4wMiwwLjExLTAuMDIsMC4yMywwLDAuMzRjLTAuMTIsMS4wOS0wLjI0LDIuMTktMC4zOCwzLjI4Yy0wLjA2LDAuMjYtMC4xNCwwLjUxLTAuMjQsMC43NSAgICAgIEMwLjU1LDQ3Ljk4LDAsNDYuNTksMC41Myw0NS4wOWMwLjMxLTAuODMsMC44NS0xLjU1LDEuNTYtMi4wN0MzLjczLDQxLjg3LDUuMjYsNDIuNTEsNiw0NC40OXoiLz4mI3hhOwkJCTwvZz4mI3hhOwkJCTxnIGlkPSJzaGFwZTE2NTUtMjciIHRyYW5zZm9ybT0idHJhbnNsYXRlKDM1LjI3MjUsLTYuNDU3NSkiPiYjeGE7CQkJCTx0aXRsZSBpZD0idGl0bGUyMzc3Ij5wYXRoMTQ0ODQ8L3RpdGxlPiYjeGE7CQkJCTxwYXRoIGlkPSJwYXRoMjM3OSIgaW5rc2NhcGU6Y29ubmVjdG9yLWN1cnZhdHVyZT0iMCIgc3R5bGU9ImZpbGw6IzQ3NkY4NzsiIGQ9Ik02LjI1LDQ5LjMyYy0xLjM0LTAuOTUtMi42OC0xLjg5LTQuMDMtMi44MyAgICAgIGMtMC4yLTAuMTMtMC40MS0wLjI0LTAuNjMtMC4zNEwwLDQ0LjU5bDEuMzMtMS4xNmwyLjI1LDIuMDJjMC40NCwwLjQ3LDAuOTEsMC45MSwxLjQxLDEuMzJDNS45MSw0Ny4yNyw2LjQxLDQ4LjI5LDYuMjUsNDkuMzJ6Ii8+JiN4YTsJCQk8L2c+JiN4YTsJCQk8ZyBpZD0ic2hhcGUxNjU2LTI5IiB0cmFuc2Zvcm09InRyYW5zbGF0ZSg4LjgyLC0zOC44NjUpIj4mI3hhOwkJCQk8dGl0bGUgaWQ9InRpdGxlMjM4MiI+cGF0aDE0NDg2PC90aXRsZT4mI3hhOwkJCQk8cGF0aCBpZD0icGF0aDIzODQiIGlua3NjYXBlOmNvbm5lY3Rvci1jdXJ2YXR1cmU9IjAiIHN0eWxlPSJmaWxsOiNEM0QwQ0Y7IiBkPSJNMS45Nyw0OC41N0wwLDQ5LjMyICAgICAgYzAuOTgtMi42Miw3LjA1LTYuNTEsOC43NC01LjU5bC0yLjQ0LDEuNUM0LjUzLDQ1Ljg0LDMuMDEsNDcuMDEsMS45Nyw0OC41N3oiLz4mI3hhOwkJCTwvZz4mI3hhOwkJCTxnIGlkPSJzaGFwZTE2NTctMzEiIHRyYW5zZm9ybT0idHJhbnNsYXRlKDYuMzE1LC0zMC4wNzUpIj4mI3hhOwkJCQk8dGl0bGUgaWQ9InRpdGxlMjM4NyI+cGF0aDE0NDg4PC90aXRsZT4mI3hhOwkJCQk8cGF0aCBpZD0icGF0aDIzODkiIGlua3NjYXBlOmNvbm5lY3Rvci1jdXJ2YXR1cmU9IjAiIHN0eWxlPSJmaWxsOiNEQ0Q5RDg7IiBkPSJNNi4xOCw0MS44NWMtMi4zMSwwLjMzLTQuMzEsMS4xOC01LjM1LDMuNDMgICAgICBjLTAuNjQsMS4yNS0wLjc4LDIuNy0wLjM3LDQuMDRjLTAuMTUsMC0wLjQ0LDAtMC40Ni0wLjA2Yy0xLjA4LTMuMjcsMC43LTYuOCwzLjk3LTcuODhjMC4zMi0wLjExLDAuNjUtMC4xOSwwLjk4LTAuMjQgICAgICBsMS4wOS0wLjE2TDYuMTgsNDEuODV6Ii8+JiN4YTsJCQk8L2c+JiN4YTsJCQk8ZyBpZD0ic2hhcGUxNjU4LTMzIiB0cmFuc2Zvcm09InRyYW5zbGF0ZSgzMC44NTUsLTQuMjIyNSkiPiYjeGE7CQkJCTx0aXRsZSBpZD0idGl0bGUyMzkyIj5wYXRoMTQ0OTA8L3RpdGxlPiYjeGE7CQkJCTxwYXRoIGlkPSJwYXRoMjM5NCIgaW5rc2NhcGU6Y29ubmVjdG9yLWN1cnZhdHVyZT0iMCIgc3R5bGU9ImZpbGw6I0U1M0IzOTsiIGQ9Ik01LjE3LDQ1LjM4Yy0wLjQyLDAuMDctMC44NCwwLjE0LTEuMjcsMC4xOSAgICAgIGMtMS4zNCwwLjE4LTEuMzMsMC4xOC0xLjQyLDEuNWMtMC4wNCwwLjU1LTAuMTMsMS4wOC0wLjgyLDEuMTJjLTAuNjksMC4wNC0wLjkxLDAuNS0wLjg1LDEuMTNDMC43LDQ4LjksMC40LDQ4LjQxLDAuNTMsNDguMDkgICAgICBjMC4xNC0wLjMxLDAuNjgtMC41NCwxLjA4LTAuODJjLTAuNDQtMC4yNC0xLjYxLDAuMzQtMS40NC0xLjFjMC45NS0wLjU1LDEuOTgtMS4yMywzLjA5LTEuNzVDNC4zNyw0My45LDQuODQsNDQuMjYsNS4xNyw0NS4zOHogICAgICAiLz4mI3hhOwkJCTwvZz4mI3hhOwkJCTxnIGlkPSJzaGFwZTE2NTktMzUiIHRyYW5zZm9ybT0idHJhbnNsYXRlKDI4LjUsLTEuNTk3NSkiPiYjeGE7CQkJCTx0aXRsZSBpZD0idGl0bGUyMzk3Ij5wYXRoMTQ0OTI8L3RpdGxlPiYjeGE7CQkJCTxwYXRoIGlkPSJwYXRoMjM5OSIgaW5rc2NhcGU6Y29ubmVjdG9yLWN1cnZhdHVyZT0iMCIgc3R5bGU9ImZpbGw6I0Y3RjdGNzsiIGQ9Ik0xLjExLDQ5LjMyQzAsNDcuOTEsMS43OCw0Ny45MSwyLjg0LDQ3LjkxICAgICAgYzAuODYsMCwxLjE2LDAuNjYsMS4yNSwxLjM4Yy0wLjQ3LTAuMDktMC45My0wLjItMS4zOS0wLjI1Yy0wLjI3LDAtMC41MywwLjAzLTAuNzksMC4xQzEuNjQsNDkuMTcsMS4zNyw0OS4yNSwxLjExLDQ5LjMyeiIvPiYjeGE7CQkJPC9nPiYjeGE7CQkJPGcgaWQ9InNoYXBlMTY2MC0zNyIgdHJhbnNmb3JtPSJ0cmFuc2xhdGUoMjcuODc3NSwtMS41OTc1KSI+JiN4YTsJCQkJPHRpdGxlIGlkPSJ0aXRsZTI0MDIiPnBhdGgxNDQ5NDwvdGl0bGU+JiN4YTsJCQkJPHBhdGggaWQ9InBhdGgyNDA0IiBpbmtzY2FwZTpjb25uZWN0b3ItY3VydmF0dXJlPSIwIiBzdHlsZT0iZmlsbDojRDdENEQzOyIgZD0iTTQuODksNDkuMjhINC43MWMtMC40OC0wLjI3LTAuOTUtMC41NS0xLjQzLTAuOCAgICAgIGMtMC45NS0wLjQ3LTEuMzItMC4yNi0xLjU2LDAuODRsLTEuMDctMC4wNkwwLDQ4LjE4YzAuNTgtMC44OSwxLjY1LTAuODYsMi40My0wLjg5czEuNjQsMC42MiwyLjQ2LDFMNC44OSw0OS4yOHoiLz4mI3hhOwkJCTwvZz4mI3hhOwkJCTxnIGlkPSJzaGFwZTE2NjEtMzkiIHRyYW5zZm9ybT0idHJhbnNsYXRlKDEwLjc5MjUsLTM5LjU3KSI+JiN4YTsJCQkJPHRpdGxlIGlkPSJ0aXRsZTI0MDciPnBhdGgxNDQ5NjwvdGl0bGU+JiN4YTsJCQkJPHBhdGggaWQ9InBhdGgyNDA5IiBpbmtzY2FwZTpjb25uZWN0b3ItY3VydmF0dXJlPSIwIiBzdHlsZT0iZmlsbDojNkQ2QjZEOyIgZD0iTTAsNDkuMjdjMS4wNS0xLjU0LDIuNTctMi42OSw0LjMzLTMuMjkgICAgICBDMy43OCw0Ny4wMiwzLjEsNDgsMi4zMSw0OC44OEMxLjgyLDQ5LjMyLDAuNzksNDkuMTQsMCw0OS4yN3oiLz4mI3hhOwkJCTwvZz4mI3hhOwkJCTxnIGlkPSJzaGFwZTE2NjItNDEiIHRyYW5zZm9ybT0idHJhbnNsYXRlKDE1LjI0NzUsLTcuMTMyNSkiPiYjeGE7CQkJCTx0aXRsZSBpZD0idGl0bGUyNDEyIj5wYXRoMTQ0OTg8L3RpdGxlPiYjeGE7CQkJCTxwYXRoIGlkPSJwYXRoMjQxNCIgaW5rc2NhcGU6Y29ubmVjdG9yLWN1cnZhdHVyZT0iMCIgc3R5bGU9ImZpbGw6I0U5RThFODsiIGQ9Ik0zLjk1LDQ3Ljk3bC0wLjMxLDEuMzUgICAgICBDMS44LDQ5LjIyLDAuMTksNDguMzYsMCw0Ny4zN0wzLjk1LDQ3Ljk3eiIvPiYjeGE7CQkJPC9nPiYjeGE7CQkJPGcgaWQ9InNoYXBlMTY2My00MyIgdHJhbnNmb3JtPSJ0cmFuc2xhdGUoMzMuODQsLTM3LjUzNzUpIj4mI3hhOwkJCQk8dGl0bGUgaWQ9InRpdGxlMjQxNyI+cGF0aDE0NTAwPC90aXRsZT4mI3hhOwkJCQk8cGF0aCBpZD0icGF0aDI0MTkiIGlua3NjYXBlOmNvbm5lY3Rvci1jdXJ2YXR1cmU9IjAiIHN0eWxlPSJmaWxsOiNGMkUwQzk7IiBkPSJNMC42MSw0OS4zMkMwLDQ5LjIzLDAuMDEsNDguNzksMC4xLDQ4LjM0ICAgICAgYzAuMjMtMS4xOSwxLjIyLTIuMSwyLjQzLTIuMjFsMS4wOSwxLjNjLTAuNjYsMC4wNS0xLjMyLDAuMTUtMS45NiwwLjNDMS4wMSw0Ny45OCwwLjU5LDQ4LjYyLDAuNjEsNDkuMzJ6Ii8+JiN4YTsJCQk8L2c+JiN4YTsJCQk8ZyBpZD0ic2hhcGUxNjY0LTQ1IiB0cmFuc2Zvcm09InRyYW5zbGF0ZSgyNi41MTI1LC03LjYwOTI0KSI+JiN4YTsJCQkJPHRpdGxlIGlkPSJ0aXRsZTI0MjIiPnBhdGgxNDUwMjwvdGl0bGU+JiN4YTsJCQkJPHBhdGggaWQ9InBhdGgyNDI0IiBpbmtzY2FwZTpjb25uZWN0b3ItY3VydmF0dXJlPSIwIiBzdHlsZT0iZmlsbDojREVDOEFEOyIgZD0iTTAsNDguNDFsNC44Mi0wLjUzICAgICAgYy0wLjksMS40NS0yLjgsMS44OS00LjI1LDAuOTlDMC4zNyw0OC43NCwwLjE3LDQ4LjU5LDAsNDguNDF6Ii8+JiN4YTsJCQk8L2c+JiN4YTsJCQk8ZyBpZD0ic2hhcGUxNjY1LTQ3IiB0cmFuc2Zvcm09InRyYW5zbGF0ZSgyOC4zOCwtNC40MjUpIj4mI3hhOwkJCQk8dGl0bGUgaWQ9InRpdGxlMjQyNyI+cGF0aDE0NTA0PC90aXRsZT4mI3hhOwkJCQk8cGF0aCBpZD0icGF0aDI0MjkiIGlua3NjYXBlOmNvbm5lY3Rvci1jdXJ2YXR1cmU9IjAiIHN0eWxlPSJmaWxsOiNFNTNCMzk7IiBkPSJNMCw0Ny40OWMwLjI1LTAuMjMsMC41NS0wLjQsMC44OC0wLjUgICAgICBjMC42Ni0wLjA3LDEuMDEsMC40MSwxLjAzLDEuMDRjMC4wOCwwLjU4LTAuMzIsMS4xMS0wLjg5LDEuMmMtMC4wNCwwLjAxLTAuMDgsMC4wMS0wLjEzLDAuMDFDMC4zMiw0OS4zMiwwLjAyLDQ4LjgsMCw0Ny40OXoiLz4mI3hhOwkJCTwvZz4mI3hhOwkJCTxnIGlkPSJzaGFwZTE2NjYtNDkiIHRyYW5zZm9ybT0idHJhbnNsYXRlKDMzLjQ1LC0xLjUpIj4mI3hhOwkJCQk8dGl0bGUgaWQ9InRpdGxlMjQzMiI+cGF0aDE0NTA2PC90aXRsZT4mI3hhOwkJCQk8cGF0aCBpZD0icGF0aDI0MzQiIGlua3NjYXBlOmNvbm5lY3Rvci1jdXJ2YXR1cmU9IjAiIHN0eWxlPSJmaWxsOiM3RUFBQkQ7IiBkPSJNMy43NSw0OS4zMkgwYzAuMDEtMC44NiwwLjcyLTEuNTQsMS41OC0xLjUzICAgICAgYzAuMjgsMCwwLjU1LDAuMDgsMC43OCwwLjIzQzIuODQsNDguMjQsMy4zMyw0OC45NiwzLjc1LDQ5LjMyeiIvPiYjeGE7CQkJPC9nPiYjeGE7CQkJPGcgaWQ9InNoYXBlMTY2Ny01MSIgdHJhbnNmb3JtPSJ0cmFuc2xhdGUoNi4zNDUsLTIxLjUyNSkiPiYjeGE7CQkJCTx0aXRsZSBpZD0idGl0bGUyNDM3Ij5wYXRoMTQ1MDg8L3RpdGxlPiYjeGE7CQkJCTxwYXRoIGlkPSJwYXRoMjQzOSIgaW5rc2NhcGU6Y29ubmVjdG9yLWN1cnZhdHVyZT0iMCIgc3R5bGU9ImZpbGw6I0VGRERDNzsiIGQ9Ik0wLDQ5LjA5bDAuMTksMC4yM0wwLDQ5LjA5eiIvPiYjeGE7CQkJPC9nPiYjeGE7CQkJPGcgaWQ9InNoYXBlMTY2OC01MyIgdHJhbnNmb3JtPSJ0cmFuc2xhdGUoMTAuNzMyNSwtMjYuNTY1KSI+JiN4YTsJCQkJPHRpdGxlIGlkPSJ0aXRsZTI0NDIiPnBhdGgxNDUxMDwvdGl0bGU+JiN4YTsJCQkJPHBhdGggaWQ9InBhdGgyNDQ0IiBpbmtzY2FwZTpjb25uZWN0b3ItY3VydmF0dXJlPSIwIiBzdHlsZT0iZmlsbDojRUZEREM3OyIgZD0iTTAuMDcsNDkuMzJMMCw0OS4wNUwwLjA3LDQ5LjMyeiIvPiYjeGE7CQkJPC9nPiYjeGE7CQkJPGcgaWQ9InNoYXBlMTY2OS01NSIgdHJhbnNmb3JtPSJ0cmFuc2xhdGUoMjguNTYsLTIwLjA3KSI+JiN4YTsJCQkJPHRpdGxlIGlkPSJ0aXRsZTI0NDciPnBhdGgxNDUxMjwvdGl0bGU+JiN4YTsJCQkJPHBhdGggaWQ9InBhdGgyNDQ5IiBpbmtzY2FwZTpjb25uZWN0b3ItY3VydmF0dXJlPSIwIiBzdHlsZT0iZmlsbDojMkIyNzI2OyIgZD0iTTAuOSw0Ni44OWMwLjI3LDEuMTgsMC41MSwxLjUsMS41OSwxLjI3ICAgICAgYzEuNTgtMC40MSwzLjExLTAuOTUsNC41OS0xLjYzYzAuNjctMC4yOSwwLjYxLTEuMjYsMC0yLjA0Yy0wLjk1LTEuMjItMS45NS0yLjQtMi44NS0zLjY1Yy0wLjk2LTEuMjItMS40My0yLjc2LTEuMzEtNC4zMSAgICAgIGMwLjI1LDAuMjIsMC40NywwLjMxLDAuNTIsMC40NmMwLjk1LDIuNzEsMi44Nyw0Ljc0LDQuNzcsNi43NWMwLjg4LDAuODIsMC45NCwyLjIsMC4xMiwzLjA4Yy0wLjE0LDAuMTUtMC4zMSwwLjI5LTAuNDksMC40ICAgICAgYy0xLjk1LDEuMi0zLjk5LDIuMS02LjM2LDEuOTVjLTAuODQtMC4wNS0xLjA0LTAuNjMtMS4xMS0xLjIzQzAuMzEsNDcuNDcsMCw0Ni43OCwwLjg1LDQ2LjU2TDAuOSw0Ni44OXoiLz4mI3hhOwkJCTwvZz4mI3hhOwkJCTxnIGlkPSJzaGFwZTE2NzAtNTciIHRyYW5zZm9ybT0idHJhbnNsYXRlKDIzLjEwNzUsLTMwLjMyMjUpIj4mI3hhOwkJCQk8dGl0bGUgaWQ9InRpdGxlMjQ1MiI+cGF0aDE0NTE0PC90aXRsZT4mI3hhOwkJCQk8cGF0aCBpZD0icGF0aDI0NTQiIGlua3NjYXBlOmNvbm5lY3Rvci1jdXJ2YXR1cmU9IjAiIHN0eWxlPSJmaWxsOiNGNUUyQ0I7IiBkPSJNMi4wOSw0Ni41NmwwLjkzLDIuNjEgICAgICBjLTAuNjMsMC4xMi0xLjI3LDAuMTctMS45MSwwLjE1QzAuNjUsNDkuMjUsMC4yNCw0OC45OCwwLDQ4LjU3Yy0wLjEtMC40NiwwLjA0LTAuOTMsMC4zNy0xLjI3ICAgICAgQzAuOTEsNDYuOTcsMS40OSw0Ni43MywyLjA5LDQ2LjU2eiIvPiYjeGE7CQkJPC9nPiYjeGE7CQkJPGcgaWQ9InNoYXBlMTY3MS01OSIgdHJhbnNmb3JtPSJ0cmFuc2xhdGUoMTcuNjQ3NSwtMzQuNzQ3NSkiPiYjeGE7CQkJCTx0aXRsZSBpZD0idGl0bGUyNDU3Ij5wYXRoMTQ1MTY8L3RpdGxlPiYjeGE7CQkJCTxwYXRoIGlkPSJwYXRoMjQ1OSIgaW5rc2NhcGU6Y29ubmVjdG9yLWN1cnZhdHVyZT0iMCIgc3R5bGU9ImZpbGw6I0VGRERDNzsiIGQ9Ik01LjQ2LDQ1LjRjLTEuOTEtMC41My00LjU3LDEuNy00Ljg0LDMuOTIgICAgICBjLTAuNjItMC42My0wLjM4LTEuMzMtMC4xLTEuOThDMS4wNyw0Ni4wMSwyLjIsNDUsMy41OCw0NC41OWMwLjcyLTAuMzEsMS41NCwwLjAyLDEuODUsMC43NEM1LjQ0LDQ1LjM1LDUuNDUsNDUuMzgsNS40Niw0NS40eiIvPiYjeGE7CQkJPC9nPiYjeGE7CQkJPGcgaWQ9InNoYXBlMTY3Mi02MSIgdHJhbnNmb3JtPSJ0cmFuc2xhdGUoMzUuNjEsLTMwLjI3NzUpIj4mI3hhOwkJCQk8dGl0bGUgaWQ9InRpdGxlMjQ2MiI+cGF0aDE0NTE4PC90aXRsZT4mI3hhOwkJCQk8cGF0aCBpZD0icGF0aDI0NjQiIGlua3NjYXBlOmNvbm5lY3Rvci1jdXJ2YXR1cmU9IjAiIHN0eWxlPSJmaWxsOiNGNUUyQ0I7IiBkPSJNMS45OCw0Ni41MmwwLjQ2LDEuNzYgICAgICBjLTAuMDYsMC4wNy0wLjExLDAuMTctMC4xOCwwLjJjLTAuNiwwLjI0LTEuMjMsMC44NC0xLjgzLDAuMTVjLTAuNDMtMC41LDAuMTItMS41OCwwLjkzLTEuOTdDMS41Niw0Ni41OSwxLjc3LDQ2LjU0LDEuOTgsNDYuNTIgICAgICB6Ii8+JiN4YTsJCQk8L2c+JiN4YTsJCQk8ZyBpZD0ic2hhcGUxNjczLTYzIiB0cmFuc2Zvcm09InRyYW5zbGF0ZSgyMi40NzgzLC0xNy4xMTUpIj4mI3hhOwkJCQk8dGl0bGUgaWQ9InRpdGxlMjQ2NyI+cGF0aDE0NTIwPC90aXRsZT4mI3hhOwkJCQk8cGF0aCBpZD0icGF0aDI0NjkiIGlua3NjYXBlOmNvbm5lY3Rvci1jdXJ2YXR1cmU9IjAiIHN0eWxlPSJmaWxsOiNGNUUyQ0I7IiBkPSJNMC4wNSw0OS4yOWMtMC4wNy0wLjY5LTAuMDctMS40LDAtMi4wOSAgICAgIGMwLTAuMTYsMC43NS0wLjIxLDEuNC0wLjM3bC0wLjk4LDIuNDlMMC4wNSw0OS4yOXoiLz4mI3hhOwkJCTwvZz4mI3hhOwkJCTxnIGlkPSJzaGFwZTE2NzQtNjUiIHRyYW5zZm9ybT0idHJhbnNsYXRlKDI5LjM4NSwtMjIuNSkiPiYjeGE7CQkJCTx0aXRsZSBpZD0idGl0bGUyNDcyIj5wYXRoMTQ1MjI8L3RpdGxlPiYjeGE7CQkJCTxwYXRoIGlkPSJwYXRoMjQ3NCIgaW5rc2NhcGU6Y29ubmVjdG9yLWN1cnZhdHVyZT0iMCIgc3R5bGU9ImZpbGw6I0Y1RTJDQjsiIGQ9Ik0wLjA3LDQ5LjMyTDAsNDkuMDIgICAgICBjMC4wMy0wLjQsMC4xLTAuNzksMC4yMi0xLjE3YzAuMTEtMC4yNiwwLjM0LTAuNDUsMC42MS0wLjUzYzAuMjYsMC4wMywwLjQ5LDAuMiwwLjYsMC40NGMwLjA1LDAuMjktMC4wMywwLjU4LTAuMjMsMC43OSAgICAgIEMwLjg1LDQ4Ljg1LDAuNDcsNDkuMTEsMC4wNyw0OS4zMnoiLz4mI3hhOwkJCTwvZz4mI3hhOwkJPC9nPiYjeGE7CTwvZz4mI3hhOzwvZz4mI3hhOzwvc3ZnPg==;" vertex="1" parent="1">
          <mxGeometry x="650" y="397" width="43" height="48" as="geometry" />
        </mxCell>
        <mxCell id="VBNxlW6NnqshUpCFo_7A-39" value="" style="shape=image;html=1;verticalAlign=top;verticalLabelPosition=bottom;labelBackgroundColor=#ffffff;imageAspect=0;aspect=fixed;image=https://cdn1.iconfinder.com/data/icons/Futurosoft%20Icons%200.5.2/128x128/apps/Login-Manager.png;dashed=1;dashPattern=8 8;strokeColor=default;strokeWidth=2;fontSize=15;fontColor=#3d19f0;fillColor=none;" vertex="1" parent="1">
          <mxGeometry x="619" y="243" width="48" height="48" as="geometry" />
        </mxCell>
        <mxCell id="VBNxlW6NnqshUpCFo_7A-42" value="" style="endArrow=classic;html=1;rounded=0;fontSize=15;fontColor=#3d19f0;dashed=1;dashPattern=8 8;" edge="1" parent="1">
          <mxGeometry width="50" height="50" relative="1" as="geometry">
            <mxPoint x="649" y="370" as="sourcePoint" />
            <mxPoint x="648.9999999999998" y="209" as="targetPoint" />
          </mxGeometry>
        </mxCell>
        <mxCell id="VBNxlW6NnqshUpCFo_7A-43" value="" style="endArrow=classic;html=1;rounded=0;fontSize=15;fontColor=#3d19f0;dashed=1;dashPattern=8 8;" edge="1" parent="1">
          <mxGeometry width="50" height="50" relative="1" as="geometry">
            <mxPoint x="629.9999999999998" y="213" as="sourcePoint" />
            <mxPoint x="629" y="380" as="targetPoint" />
          </mxGeometry>
        </mxCell>
        <mxCell id="VBNxlW6NnqshUpCFo_7A-49" value="" style="whiteSpace=wrap;html=1;strokeWidth=2;fontSize=15;fillColor=none;dashed=1;dashPattern=8 8;imageAspect=0;strokeColor=#9673a6;" vertex="1" parent="1">
          <mxGeometry x="548" y="465" width="100" height="59" as="geometry" />
        </mxCell>
        <mxCell id="VBNxlW6NnqshUpCFo_7A-52" style="edgeStyle=elbowEdgeStyle;rounded=0;orthogonalLoop=1;jettySize=auto;elbow=vertical;html=1;strokeColor=#808080;" edge="1" parent="1">
          <mxGeometry relative="1" as="geometry">
            <mxPoint x="120.5" y="200.00000000000023" as="sourcePoint" />
            <mxPoint x="120" y="349" as="targetPoint" />
          </mxGeometry>
        </mxCell>
        <mxCell id="VBNxlW6NnqshUpCFo_7A-54" value="commit" style="edgeLabel;html=1;align=center;verticalAlign=middle;resizable=0;points=[];fontSize=15;fontColor=#3d19f0;" vertex="1" connectable="0" parent="VBNxlW6NnqshUpCFo_7A-52">
          <mxGeometry x="-0.2419" y="-1" relative="1" as="geometry">
            <mxPoint as="offset" />
          </mxGeometry>
        </mxCell>
        <mxCell id="VBNxlW6NnqshUpCFo_7A-53" value="Visual Studio&#xa;Code" style="shape=image;verticalLabelPosition=bottom;labelBackgroundColor=none;verticalAlign=top;aspect=fixed;imageAspect=0;image=data:image/svg+xml,PHN2ZyB4bWxuczpkYz0iaHR0cDovL3B1cmwub3JnL2RjL2VsZW1lbnRzLzEuMS8iIHhtbG5zOmNjPSJodHRwOi8vY3JlYXRpdmVjb21tb25zLm9yZy9ucyMiIHhtbG5zOnJkZj0iaHR0cDovL3d3dy53My5vcmcvMTk5OS8wMi8yMi1yZGYtc3ludGF4LW5zIyIgeG1sbnM6c3ZnPSJodHRwOi8vd3d3LnczLm9yZy8yMDAwL3N2ZyIgeG1sbnM9Imh0dHA6Ly93d3cudzMub3JnLzIwMDAvc3ZnIiB4bWxuczp4bGluaz0iaHR0cDovL3d3dy53My5vcmcvMTk5OS94bGluayIgeG1sbnM6c29kaXBvZGk9Imh0dHA6Ly9zb2RpcG9kaS5zb3VyY2Vmb3JnZS5uZXQvRFREL3NvZGlwb2RpLTAuZHRkIiB4bWxuczppbmtzY2FwZT0iaHR0cDovL3d3dy5pbmtzY2FwZS5vcmcvbmFtZXNwYWNlcy9pbmtzY2FwZSIgdmVyc2lvbj0iMS4xIiBpZD0iTGF5ZXJfMSIgeD0iMHB4IiB5PSIwcHgiIHZpZXdCb3g9IjAgMCA1MC44NDk5OTggNTEuMDkiIHhtbDpzcGFjZT0icHJlc2VydmUiIHNvZGlwb2RpOmRvY25hbWU9InZpc3VhbF9zdHVkaW9fY29kZS5zdmciIHdpZHRoPSI1MC44NDk5OTgiIGhlaWdodD0iNTEuMDkiIGlua3NjYXBlOnZlcnNpb249IjAuOTIuMyAoMjQwNTU0NiwgMjAxOC0wMy0xMSkiPjxtZXRhZGF0YSBpZD0ibWV0YWRhdGE0MzE4OSI+PHJkZjpSREY+PGNjOldvcmsgcmRmOmFib3V0PSIiPjxkYzpmb3JtYXQ+aW1hZ2Uvc3ZnK3htbDwvZGM6Zm9ybWF0PjxkYzp0eXBlIHJkZjpyZXNvdXJjZT0iaHR0cDovL3B1cmwub3JnL2RjL2RjbWl0eXBlL1N0aWxsSW1hZ2UiLz48ZGM6dGl0bGUvPjwvY2M6V29yaz48L3JkZjpSREY+PC9tZXRhZGF0YT48ZGVmcyBpZD0iZGVmczQzMTg3Ii8+PHNvZGlwb2RpOm5hbWVkdmlldyBwYWdlY29sb3I9IiNmZmZmZmYiIGJvcmRlcmNvbG9yPSIjNjY2NjY2IiBib3JkZXJvcGFjaXR5PSIxIiBvYmplY3R0b2xlcmFuY2U9IjEwIiBncmlkdG9sZXJhbmNlPSIxMCIgZ3VpZGV0b2xlcmFuY2U9IjEwIiBpbmtzY2FwZTpwYWdlb3BhY2l0eT0iMCIgaW5rc2NhcGU6cGFnZXNoYWRvdz0iMiIgaW5rc2NhcGU6d2luZG93LXdpZHRoPSIxOTIwIiBpbmtzY2FwZTp3aW5kb3ctaGVpZ2h0PSIxMDE3IiBpZD0ibmFtZWR2aWV3NDMxODUiIHNob3dncmlkPSJmYWxzZSIgZml0LW1hcmdpbi10b3A9IjAiIGZpdC1tYXJnaW4tbGVmdD0iMCIgZml0LW1hcmdpbi1yaWdodD0iMCIgZml0LW1hcmdpbi1ib3R0b209IjAiIGlua3NjYXBlOnpvb209IjEuMDMwMzAzIiBpbmtzY2FwZTpjeD0iLTYuNTU1IiBpbmtzY2FwZTpjeT0iLTI5Ni4wNyIgaW5rc2NhcGU6d2luZG93LXg9Ii04IiBpbmtzY2FwZTp3aW5kb3cteT0iLTgiIGlua3NjYXBlOndpbmRvdy1tYXhpbWl6ZWQ9IjEiIGlua3NjYXBlOmN1cnJlbnQtbGF5ZXI9IkxheWVyXzEiLz4mI3hhOyYjeGE7PGcgaWQ9Imc0MzE4MiIgdHJhbnNmb3JtPSJ0cmFuc2xhdGUoLTMwMy45MywtNzMuNTkpIj4mI3hhOwk8ZGVmcyBpZD0iZGVmczQzMTY3Ij4mI3hhOwkJPHJlY3QgaWQ9IlNWR0lEXzNfIiB4PSIzMDMuOTI5OTkiIHk9IjczLjU4OTk5NiIgd2lkdGg9IjUxLjI1IiBoZWlnaHQ9IjUxLjI1Ii8+JiN4YTsJPC9kZWZzPiYjeGE7CTxjbGlwUGF0aCBpZD0iU1ZHSURfNF8iPiYjeGE7CQk8dXNlIHhsaW5rOmhyZWY9IiNTVkdJRF8zXyIgc3R5bGU9Im92ZXJmbG93OnZpc2libGUiIGlkPSJ1c2U0MzE2OSIgeD0iMCIgeT0iMCIgd2lkdGg9IjEwMCUiIGhlaWdodD0iMTAwJSIvPiYjeGE7CTwvY2xpcFBhdGg+JiN4YTsJPGcgY2xpcC1wYXRoPSJ1cmwoI1NWR0lEXzRfKSIgaWQ9Imc0MzE4MCI+JiN4YTsJCTxkZWZzIGlkPSJkZWZzNDMxNzMiPiYjeGE7CQkJPHJlY3QgaWQ9IlNWR0lEXzVfIiB4PSIzMDMuOTI5OTkiIHk9IjczLjU4OTk5NiIgd2lkdGg9IjUxLjI1IiBoZWlnaHQ9IjUxLjI1Ii8+JiN4YTsJCTwvZGVmcz4mI3hhOwkJPGNsaXBQYXRoIGlkPSJTVkdJRF82XyI+JiN4YTsJCQk8dXNlIHhsaW5rOmhyZWY9IiNTVkdJRF81XyIgc3R5bGU9Im92ZXJmbG93OnZpc2libGUiIGlkPSJ1c2U0MzE3NSIgeD0iMCIgeT0iMCIgd2lkdGg9IjEwMCUiIGhlaWdodD0iMTAwJSIvPiYjeGE7CQk8L2NsaXBQYXRoPiYjeGE7CQk8cGF0aCBzdHlsZT0iZmlsbDojMDE3OWNiIiBkPSJtIDMwOS44NywxMDUuMDIgNi4yMywtNS42NiAtNi4yMywtNi4yMyBWIDEwNSBaIG0gMzEuNTEsMy4zIFYgODkuOTUgbCAtMTEuODksOS4xOSAxMS44Nyw5LjE3IGggMC4wMiB6IG0gLTE5LjM1LC0zLjQ0IC0xMi42LDkuNzggLTUuNSwtMi43IFYgODYuMzUgbCA1LjQ4LC0yLjc2IDEyLjUyLDkuODQgMTkuODIsLTE5Ljg0IDEzLjAzLDUuMjMgdiA0MC41OSBsIC0xMi45OCw1LjI3IHoiIGNsaXAtcGF0aD0idXJsKCNTVkdJRF82XykiIGlkPSJwYXRoNDMxNzgiIGlua3NjYXBlOmNvbm5lY3Rvci1jdXJ2YXR1cmU9IjAiLz4mI3hhOwk8L2c+JiN4YTs8L2c+JiN4YTs8L3N2Zz4=;" vertex="1" parent="1">
          <mxGeometry x="100" y="110" width="51" height="51" as="geometry" />
        </mxCell>
        <mxCell id="VBNxlW6NnqshUpCFo_7A-55" value="" style="edgeStyle=elbowEdgeStyle;elbow=horizontal;endArrow=classic;html=1;curved=0;rounded=0;endSize=8;startSize=8;dashed=1;fontSize=15;fontColor=#3d19f0;exitX=0.5;exitY=1;exitDx=0;exitDy=0;" edge="1" parent="1" source="VBNxlW6NnqshUpCFo_7A-32">
          <mxGeometry width="50" height="50" relative="1" as="geometry">
            <mxPoint x="640" y="650" as="sourcePoint" />
            <mxPoint x="390" y="790" as="targetPoint" />
            <Array as="points">
              <mxPoint x="570" y="690" />
            </Array>
          </mxGeometry>
        </mxCell>
        <mxCell id="VBNxlW6NnqshUpCFo_7A-57" value="" style="endArrow=classic;html=1;rounded=0;dashed=1;fontSize=15;fontColor=#3d19f0;startArrow=none;" edge="1" parent="1" source="VBNxlW6NnqshUpCFo_7A-63">
          <mxGeometry width="50" height="50" relative="1" as="geometry">
            <mxPoint x="698" y="480" as="sourcePoint" />
            <mxPoint x="950" y="480" as="targetPoint" />
          </mxGeometry>
        </mxCell>
        <mxCell id="VBNxlW6NnqshUpCFo_7A-58" value="" style="shape=image;verticalLabelPosition=bottom;labelBackgroundColor=default;verticalAlign=top;aspect=fixed;imageAspect=0;image=data:image/svg+xml,PHN2ZyB4bWxucz0iaHR0cDovL3d3dy53My5vcmcvMjAwMC9zdmciIHZpZXdCb3g9Ii01MC45NDk0NSAtMTYuNTM5NzUgNDQxLjU2MTkgOTkuMjM4NSIgd2lkdGg9IjEyMDAiIGhlaWdodD0iODAwIj48cGF0aCBkPSJNMTk1LjI4NyA2NC4yNjloNy40ODZsLTI3LjMyNy0yOS40NWgtMy44Njh2My43NDR6bS01MC45MTMgMGwyMy43MS0yNS43MDZ2LTMuNzQ0aC0zLjg2OGwtMjcuMzI4IDI5LjQ1em0yNy4zMjktMzIuOTQzaDMuODY4bDI3LjMyNi0yOS40NDloLTcuNDg1bC0yMy43MDkgMjUuNzA1em0tMy42MTkgMHYtMy43NDRsLTIzLjcxLTI1LjcwNWgtNy40ODZsMjcuMzI4IDI5LjQ0OXptOTYuODMyLTI5LjQ0OWg1LjczOXY2Mi4zOTJoLTUuNzM5em0tNTMuNDA3IDBWNDMuNjhjLjM3MyAxNC42IDguMzU5IDIyLjQ2MSAyMy41ODQgMjIuNDYxIDkuNDgyIDAgMTkuMjE3LTUuMzY1IDI2LjMyOC0xMS43Mjl2LTYuNDljLTcuNzM1IDcuNDg2LTE2Ljg0NiAxMy4yMjktMjYuMzI4IDEzLjIyOS0xMC43MzIgMC0xNy44NDQtNS45ODktMTcuODQ0LTE3LjQ3MVYxLjg3N3pNMzUuNTYyLjAwNWMtOS43MzIgMC0xOS4yMTUgNS40OS0yNi4zMjggMTEuODU0djYuNDg4QzE2Ljk3MSAxMC44NiAyNS44MyA0Ljk5NiAzNS41NjIgNC45OTZjMTAuNjA2IDAgMTcuNzIxIDUuOTkgMTcuNzIxIDE3LjQ3djQxLjgwM2g1LjczOVYyMi40NjZDNTguNzcyIDcuODY1IDUwLjkxMi4wMDUgMzUuNTYyLjAwNXpNMCAxLjg3N2g1Ljc0djYyLjM5Mkgwek0zMTEuMDg3IDBjLTExLjM1NiAwLTI2Ljk1NSA0LjUzMi0yNi45NTUgMTcuODg3IDAgMTQuMDg5IDE3LjA5NyAxNS44NzMgMjcuOTUzIDE3LjM0MiA2LjczOC45OCAyMS44MzYgMi4yNiAyMS44MzYgMTMuMDQyIDAgMTAuNjU5LTE0LjIyNiAxMi44NjYtMjIuMjExIDEyLjg2Ni0xMC42MDcgMC0yNC4wODYtNC4wNDUtMjQuODMyLTE2LjkwOGgtNS42MTVjLjg3NCAxNi4wNDcgMTYuMDk3IDIxLjkzIDMwLjQ0NyAyMS45MyAxMC4xMDcgMCAyNy45NTMtMy4wNjIgMjcuOTUzLTE3Ljg4OCAwLTE0LjIxMi0xNi42LTE2LjYxNS0yNi44My0xOC4wODYtOC45ODUtMS4xMDQtMjIuOTYxLTIuNDk2LTIyLjk2MS0xMi4yOTggMC05LjgwMSAxMi44NTQtMTIuNzUzIDIxLjIxNS0xMi43NTMgMTAuNDggMCAyMi40NjEgNC4xNzggMjIuNDYxIDE1LjY5NGg1LjczOEMzMzkuMjg3IDUuODggMzI0LjA2MiAwIDMxMS4wODcgMHpNODAuODYgMzEuMzI2djEuNDk3aDUyLjAzNXYtMy4zNjlDMTMyLjY0NCAxMi4zNTggMTIwLjE2Ni4wMDUgMTAyLjY5Ni4wMDVjLTE1Ljk5MiAwLTMwLjI3NyAxMy4xMDQtMzEuMDM1IDMwLjIxM2wtLjAxMS0uMDA3cy0uMTc2IDIuMTI0LjAwMSA0Ljg1NGMuMDA3LjA5NC4wMTQuMTczLjAyMS4yNDUuOTIzIDE4LjQxNiAxMy44NzMgMzAuNzA3IDMxLjY0OCAzMC44MyAxMC45NzkgMCAyMC44MzgtMy40OTQgMjguMzI1LTExLjM1NGwtMy4xMi0zLjYxOWMtNi43MzcgNi42MTMtMTUuNDczIDkuOTgzLTI1LjIwNSA5Ljk4My0xNC44NSAwLTI2LjA4MS0xMC45ODEtMjYuMDgxLTI3LjcwM3YtMi40OTZjMC0xNC44NDkgMTIuMjI5LTI1Ljk1NSAyNS40NTYtMjUuOTU1IDE0LjQ3NSAwIDIzLjQ1OSAxMC4xMDggMjQuNTg0IDIzLjA4NUg4MS4yMzNjLS4yNDguODc0LS4zNzMgMi4zNzEtLjM3MyAzLjI0NXoiIGZpbGw9IiMyMTIxMjEiLz48L3N2Zz4=;" vertex="1" parent="1">
          <mxGeometry x="1023.5" y="447" width="143" height="95.43" as="geometry" />
        </mxCell>
        <mxCell id="VBNxlW6NnqshUpCFo_7A-59" value="" style="shape=ext;double=1;whiteSpace=wrap;html=1;dashed=1;dashPattern=8 8;strokeColor=#82b366;strokeWidth=2;fontSize=15;fillColor=none;" vertex="1" parent="1">
          <mxGeometry x="960" y="390.5" width="270" height="169.5" as="geometry" />
        </mxCell>
        <mxCell id="VBNxlW6NnqshUpCFo_7A-60" value="&lt;b&gt;&lt;font color=&quot;#4d3b00&quot;&gt;CI Pipeline&lt;/font&gt;&lt;/b&gt;" style="text;html=1;align=center;verticalAlign=middle;resizable=0;points=[];autosize=1;strokeColor=none;fillColor=none;fontSize=15;" vertex="1" parent="1">
          <mxGeometry x="495" y="392" width="100" height="30" as="geometry" />
        </mxCell>
        <mxCell id="VBNxlW6NnqshUpCFo_7A-61" value="&lt;b&gt;&lt;font color=&quot;#1e4d2c&quot;&gt;Registry&lt;/font&gt;&lt;/b&gt;" style="text;html=1;align=center;verticalAlign=middle;resizable=0;points=[];autosize=1;strokeColor=none;fillColor=none;fontSize=15;" vertex="1" parent="1">
          <mxGeometry x="963" y="390.5" width="80" height="30" as="geometry" />
        </mxCell>
        <mxCell id="VBNxlW6NnqshUpCFo_7A-64" value="" style="endArrow=none;html=1;rounded=0;dashed=1;fontSize=15;fontColor=#3d19f0;" edge="1" parent="1" target="VBNxlW6NnqshUpCFo_7A-63">
          <mxGeometry width="50" height="50" relative="1" as="geometry">
            <mxPoint x="698" y="480" as="sourcePoint" />
            <mxPoint x="950" y="480" as="targetPoint" />
          </mxGeometry>
        </mxCell>
        <mxCell id="VBNxlW6NnqshUpCFo_7A-63" value="Push images" style="text;html=1;align=center;verticalAlign=middle;resizable=0;points=[];autosize=1;strokeColor=none;fillColor=none;fontSize=15;fontColor=#1e4d2c;" vertex="1" parent="1">
          <mxGeometry x="765" y="465" width="110" height="30" as="geometry" />
        </mxCell>
        <mxCell id="VBNxlW6NnqshUpCFo_7A-65" value="" style="shape=ext;double=1;whiteSpace=wrap;html=1;dashed=1;dashPattern=8 8;strokeColor=#6c8ebf;strokeWidth=2;fontSize=15;fillColor=none;" vertex="1" parent="1">
          <mxGeometry x="34" y="710" width="336" height="180" as="geometry" />
        </mxCell>
        <mxCell id="VBNxlW6NnqshUpCFo_7A-66" value="&lt;b&gt;&lt;font color=&quot;#3d19f0&quot;&gt;Manifest Repo&lt;/font&gt;&lt;/b&gt;" style="text;html=1;align=center;verticalAlign=middle;resizable=0;points=[];autosize=1;strokeColor=none;fillColor=none;fontSize=15;" vertex="1" parent="1">
          <mxGeometry x="25" y="708" width="130" height="30" as="geometry" />
        </mxCell>
      </root>
    </mxGraphModel>
  </diagram>
</mxfile>
